SplineFontDB: 3.0
FontName: AyannaNarrowTamil-ExtraBold
FullName: AyannaNarrow
FamilyName: ayanna-tamil
OS2FamilyName: "ayanna-tamil tamil"
OS2StyleName: "regular"
Weight: Regular
Copyright: Licensed under the SIL Open Font License 1.1 (see file OFL.txt)
Version: 2.5
ItalicAngle: 0
UnderlinePosition: 0
UnderlineWidth: 0
Ascent: 800
Descent: 200
InvalidEm: 0
UFOAscent: 800
UFODescent: -200
LayerCount: 2
Layer: 0 0 "Back" 1
Layer: 1 0 "Fore" 0
FSType: 0
OS2Version: 0
OS2_WeightWidthSlopeOnly: 0
OS2_UseTypoMetrics: 0
CreationTime: 1453212118
ModificationTime: 1453212118
PfmFamily: 16
TTFWeight: 400
TTFWidth: 5
LineGap: 0
VLineGap: 0
Panose: 2 0 6 0 0 0 0 0 0 0
OS2TypoAscent: 800
OS2TypoAOffset: 0
OS2TypoDescent: -200
OS2TypoDOffset: 0
OS2TypoLinegap: 0
OS2WinAscent: 954
OS2WinAOffset: 0
OS2WinDescent: 386
OS2WinDOffset: 0
HheadAscent: 954
HheadAOffset: 0
HheadDescent: -386
HheadDOffset: 0
OS2SubXSize: 841
OS2SubYSize: 780
OS2SubXOff: 0
OS2SubYOff: 240
OS2SupXSize: 841
OS2SupYSize: 780
OS2SupXOff: 0
OS2SupYOff: 601
OS2StrikeYSize: 60
OS2StrikeYPos: 300
OS2CapHeight: 700
OS2XHeight: 500
OS2Vendor: 'ACE '
OS2CodePages: 00000001.00000000
OS2UnicodeRanges: 80108003.00002042.00000000.00000000
Lookup: 260 0 0 "blwmBelowBaseMarkinTamillookup1" { "blwmBelowBaseMarkinTamillookup1 subtable"  } ['blwm' ('taml' <'dflt' > 'DFLT' <'dflt' > ) ]
Lookup: 260 0 0 "abvmAboveBaseMarkinTamillookup0" { "abvmAboveBaseMarkinTamillookup0 subtable"  } ['abvm' ('taml' <'dflt' > 'DFLT' <'dflt' > ) ]
DEI: 91125
LangName: 1033 "Licensed under the SIL Open Font License 1.1 (see file OFL.txt)" "" "" "" "" "Version 2.5.0" "" "" "" "" "" "" "" "" "" "" "ayanna-tamil" "regular"
PickledDataWithLists: "(dp1
S'public.glyphOrder'
p2
(lp3
S'tml_A'
p4
aS'tml_Aa'
p5
aS'tml_I'
p6
aS'tml_Ii'
p7
aS'tml_U'
p8
aS'tml_Uu'
p9
aS'tml_E'
p10
aS'tml_Ee'
p11
aS'tml_Ai'
p12
aS'tml_O'
p13
aS'tml_Oo'
p14
aS'tml_Au'
p15
aS'tml_Ka'
p16
aS'tml_Nga'
p17
aS'tml_Ca'
p18
aS'tml_Ja'
p19
aS'tml_Nya'
p20
aS'tml_Tta'
p21
aS'tml_Nna'

StartChar: tml_A
Encoding: 2 2949 2
GlifName: tml_A_
Width: 831
VWidth: 0
GlyphClass: 2
Flags: W
LayerCount: 2
Back
Fore
SplineSet
759 -85 m 257
 759 559 l 257
 801 559 l 257
 801 -85 l 257
 759 -85 l 257
323 291 m 256
 377 291 408 333 408 384 c 256
 408 439 363 469 320 469 c 256
 263 469 234 426 234 385 c 257
 207 389 l 257
 207 455 252 511 323 511 c 256
 387 511 450 464 450 381 c 256
 450 304 400 249 322 249 c 256
 246 249 191 300 191 385 c 256
 191 489 274 573 405 573 c 256
 581 573 663 420 663 256 c 256
 663 29 507 -104 290 -104 c 256
 126 -104 30 -28 30 77 c 256
 30 149 76 221 214 221 c 258
 787 221 l 257
 787 179 l 257
 221 179 l 258
 127 179 72 150 72 79 c 256
 72 -7 157 -62 284 -62 c 256
 491 -62 618 74 618 256 c 256
 618 371 568 531 403 531 c 256
 299 531 234 468 234 385 c 256
 234 316 281 291 323 291 c 256
  PathStart: -2
EndSplineSet
EndChar

StartChar: tml_Aa
Encoding: 4 2950 4
GlifName: tml_A_a
Width: 1022
VWidth: 0
GlyphClass: 2
Flags: W
LayerCount: 2
Back
Fore
SplineSet
759 -85 m 257
 759 559 l 257
 801 559 l 257
 801 -85 l 257
 759 -85 l 257
323 291 m 256
 377 291 408 333 408 384 c 256
 408 439 363 469 320 469 c 256
 263 469 234 426 234 385 c 257
 207 389 l 257
 207 455 252 511 323 511 c 256
 387 511 450 464 450 381 c 256
 450 304 400 249 322 249 c 256
 246 249 191 300 191 385 c 256
 191 489 274 573 405 573 c 256
 581 573 663 420 663 256 c 256
 663 29 507 -104 290 -104 c 256
 126 -104 30 -28 30 77 c 256
 30 149 76 221 214 221 c 258
 787 221 l 257
 787 179 l 257
 221 179 l 258
 127 179 72 150 72 79 c 256
 72 -7 157 -62 284 -62 c 256
 491 -62 618 74 618 256 c 256
 618 371 568 531 403 531 c 256
 299 531 234 468 234 385 c 256
 234 316 281 291 323 291 c 256
  PathStart: -2
516 -191 m 256
 516 -266 593 -307 697 -307 c 256
 800 -307 918 -234 918 -98 c 256
 918 -49 904 17 849 17 c 256
 810 17 801 -15 801 -42 c 257
 767 -21 l 257
 770 20 799 60 849 59 c 256
 910 58 960 9 960 -98 c 256
 960 -253 832 -349 697 -349 c 256
 568 -349 476 -289 476 -192 c 256
 476 -108 540 -68 622 -68 c 257
 622 -110 l 257
 550 -110 516 -136 516 -191 c 256
  PathStart: -2
EndSplineSet
PickledDataWithLists: "(dp1
S'com.typemytype.robofont.layerData'
p2
(dp3
S'Light Jan 19 16, 17:06'
p4
(dp5
S'name'
p6
S'tml_Aa'
p7
sS'lib'
p8
(dp9
sS'unicodes'
p10
(lp11
sS'width'
p12
I1022
sS'contours'
p13
(lp14
(dp15
S'points'
p16
(lp17
(dp18
S'segmentType'
p19
S'line'
p20
sS'x'
I759
sS'smooth'
p21
I00
sS'y'
I-85
sa(dp22
g19
S'line'
p23
sS'x'
I759
sg21
I00
sS'y'
I559
sa(dp24
g19
S'line'
p25
sS'x'
I801
sg21
I00
sS'y'
I559
sa(dp26
g19
S'line'
p27
sS'x'
I801
sg21
I00
sS'y'
I-85
sasa(dp28
g16
(lp29
(dp30
S'y'
I316
sS'x'
I234
sg21
I00
sa(dp31
S'y'
I291
sS'x'
I281
sg21
I00
sa(dp32
g19
S'curve'
p33
sS'x'
I323
sg21
I01
sS'y'
I291
sa(dp34
S'y'
I291
sS'x'
I377
sg21
I00
sa(dp35
S'y'
I333
sS'x'
I408
sg21
I00
sa(dp36
g19
S'curve'
p37
sS'x'
I408
sg21
I01
sS'y'
I384
sa(dp38
S'y'
I439
sS'x'
I408
sg21
I00
sa(dp39
S'y'
I469
sS'x'
I363
sg21
I00
sa(dp40
g19
S'curve'
p41
sS'x'
I320
sg21
I01
sS'y'
I469
sa(dp42
S'y'
I469
sS'x'
I263
sg21
I00
sa(dp43
S'y'
I426
sS'x'
I234
sg21
I00
sa(dp44
g19
S'curve'
p45
sS'x'
I234
sg21
I00
sS'y'
I385
sa(dp46
g19
S'line'
p47
sS'x'
I207
sg21
I00
sS'y'
I389
sa(dp48
S'y'
I455
sS'x'
I207
sg21
I00
sa(dp49
S'y'
I511
sS'x'
I252
sg21
I00
sa(dp50
g19
S'curve'
p51
sS'x'
I323
sg21
I01
sS'y'
I511
sa(dp52
S'y'
I511
sS'x'
I387
sg21
I00
sa(dp53
S'y'
I464
sS'x'
I450
sg21
I00
sa(dp54
g19
S'curve'
p55
sS'x'
I450
sg21
I01
sS'y'
I381
sa(dp56
S'y'
I304
sS'x'
I450
sg21
I00
sa(dp57
S'y'
I249
sS'x'
I400
sg21
I00
sa(dp58
g19
S'curve'
p59
sS'x'
I322
sg21
I01
sS'y'
I249
sa(dp60
S'y'
I249
sS'x'
I246
sg21
I00
sa(dp61
S'y'
I300
sS'x'
I191
sg21
I00
sa(dp62
g19
S'curve'
p63
sS'x'
I191
sg21
I01
sS'y'
I385
sa(dp64
S'y'
I489
sS'x'
I191
sg21
I00
sa(dp65
S'y'
I573
sS'x'
I274
sg21
I00
sa(dp66
g19
S'curve'
p67
sS'x'
I405
sg21
I01
sS'y'
I573
sa(dp68
S'y'
I573
sS'x'
I581
sg21
I00
sa(dp69
S'y'
I420
sS'x'
I663
sg21
I00
sa(dp70
g19
S'curve'
p71
sS'x'
I663
sg21
I01
sS'y'
I256
sa(dp72
S'y'
I29
sS'x'
I663
sg21
I00
sa(dp73
S'y'
I-104
sS'x'
I507
sg21
I00
sa(dp74
g19
S'curve'
p75
sS'x'
I290
sg21
I01
sS'y'
I-104
sa(dp76
S'y'
I-104
sS'x'
I126
sg21
I00
sa(dp77
S'y'
I-28
sS'x'
I30
sg21
I00
sa(dp78
g19
S'curve'
p79
sS'x'
I30
sg21
I01
sS'y'
I77
sa(dp80
S'y'
I149
sS'x'
I30
sg21
I00
sa(dp81
S'y'
I221
sS'x'
I76
sg21
I00
sa(dp82
g19
S'curve'
p83
sS'x'
I214
sg21
I01
sS'y'
I221
sa(dp84
g19
S'line'
p85
sS'x'
I787
sg21
I00
sS'y'
I221
sa(dp86
g19
S'line'
p87
sS'x'
I787
sg21
I00
sS'y'
I179
sa(dp88
g19
S'line'
p89
sS'x'
I221
sg21
I01
sS'y'
I179
sa(dp90
S'y'
I179
sS'x'
I127
sg21
I00
sa(dp91
S'y'
I150
sS'x'
I72
sg21
I00
sa(dp92
g19
S'curve'
p93
sS'x'
I72
sg21
I01
sS'y'
I79
sa(dp94
S'y'
I-7
sS'x'
I72
sg21
I00
sa(dp95
S'y'
I-62
sS'x'
I157
sg21
I00
sa(dp96
g19
S'curve'
p97
sS'x'
I284
sg21
I01
sS'y'
I-62
sa(dp98
S'y'
I-62
sS'x'
I491
sg21
I00
sa(dp99
S'y'
I74
sS'x'
I618
sg21
I00
sa(dp100
g19
S'curve'
p101
sS'x'
I618
sg21
I01
sS'y'
I256
sa(dp102
S'y'
I371
sS'x'
I618
sg21
I00
sa(dp103
S'y'
I531
sS'x'
I568
sg21
I00
sa(dp104
g19
S'curve'
p105
sS'x'
I403
sg21
I01
sS'y'
I531
sa(dp106
S'y'
I531
sS'x'
I299
sg21
I00
sa(dp107
S'y'
I468
sS'x'
I234
sg21
I00
sa(dp108
g19
S'curve'
p109
sS'x'
I234
sg21
I01
sS'y'
I385
sasa(dp110
g16
(lp111
(dp112
S'y'
I-110
sS'x'
I530
sg21
I00
sa(dp113
S'y'
I-132
sS'x'
I492
sg21
I00
sa(dp114
g19
S'curve'
p115
sS'x'
I492
sg21
I01
sS'y'
I-184
sa(dp116
S'y'
I-262
sS'x'
I492
sg21
I00
sa(dp117
S'y'
I-307
sS'x'
I583
sg21
I00
sa(dp118
g19
S'curve'
p119
sS'x'
I687
sg21
I01
sS'y'
I-307
sa(dp120
S'y'
I-307
sS'x'
I820
sg21
I00
sa(dp121
S'y'
I-214
sS'x'
I928
sg21
I00
sa(dp122
g19
S'curve'
p123
sS'x'
I928
sg21
I01
sS'y'
I-98
sa(dp124
S'y'
I-49
sS'x'
I928
sg21
I00
sa(dp125
S'y'
I17
sS'x'
I920
sg21
I00
sa(dp126
g19
S'curve'
p127
sS'x'
I858
sg21
I01
sS'y'
I17
sa(dp128
S'y'
I17
sS'x'
I807
sg21
I00
sa(dp129
S'y'
I-25
sS'x'
I801
sg21
I00
sa(dp130
g19
S'curve'
p131
sS'x'
I801
sg21
I00
sS'y'
I-42
sa(dp132
g19
S'line'
p133
sS'x'
I767
sg21
I00
sS'y'
I-21
sa(dp134
S'y'
I20
sS'x'
I770
sg21
I00
sa(dp135
S'y'
I60
sS'x'
I802
sg21
I00
sa(dp136
g19
S'curve'
p137
sS'x'
I858
sg21
I01
sS'y'
I59
sa(dp138
S'y'
I58
sS'x'
I925
sg21
I00
sa(dp139
S'y'
I9
sS'x'
I970
sg21
I00
sa(dp140
g19
S'curve'
p141
sS'x'
I970
sg21
I01
sS'y'
I-98
sa(dp142
S'y'
I-237
sS'x'
I970
sg21
I00
sa(dp143
S'y'
I-349
sS'x'
I852
sg21
I00
sa(dp144
g19
S'curve'
p145
sS'x'
I697
sg21
I01
sS'y'
I-349
sa(dp146
S'y'
I-349
sS'x'
I568
sg21
I00
sa(dp147
S'y'
I-282
sS'x'
I452
sg21
I00
sa(dp148
g19
S'curve'
p149
sS'x'
I452
sg21
I01
sS'y'
I-185
sa(dp150
S'y'
I-121
sS'x'
I452
sg21
I00
sa(dp151
S'y'
I-68
sS'x'
I496
sg21
I00
sa(dp152
g19
S'curve'
p153
sS'x'
I602
sg21
I00
sS'y'
I-68
sa(dp154
g19
S'line'
p155
sS'x'
I602
sg21
I00
sS'y'
I-110
sasa(dp156
g16
(lp157
(dp158
S'y'
I-161
sS'x'
I570
sg21
I00
sa(dp159
S'y'
I-163
sS'x'
I550
sg21
I00
sa(dp160
g19
S'curve'
p161
sS'x'
I550
sg21
I01
sS'y'
I-186
sa(dp162
S'y'
I-222
sS'x'
I550
sg21
I00
sa(dp163
S'y'
I-258
sS'x'
I610
sg21
I00
sa(dp164
g19
S'curve'
p165
sS'x'
I696
sg21
I01
sS'y'
I-258
sa(dp166
S'y'
I-258
sS'x'
I783
sg21
I00
sa(dp167
S'y'
I-208
sS'x'
I874
sg21
I00
sa(dp168
g19
S'curve'
p169
sS'x'
I874
sg21
I01
sS'y'
I-95
sa(dp170
S'y'
I-44
sS'x'
I874
sg21
I00
sa(dp171
S'y'
I-22
sS'x'
I847
sg21
I00
sa(dp172
g19
S'curve'
p173
sS'x'
I825
sg21
I01
sS'y'
I-22
sa(dp174
S'y'
I-22
sS'x'
I812
sg21
I00
sa(dp175
S'y'
I-30
sS'x'
I801
sg21
I00
sa(dp176
g19
S'curve'
p177
sS'x'
I801
sg21
I00
sS'y'
I-47
sa(dp178
g19
S'line'
p179
sS'x'
I745
sg21
I00
sS'y'
I5
sa(dp180
S'y'
I43
sS'x'
I773
sg21
I00
sa(dp181
S'y'
I59
sS'x'
I805
sg21
I00
sa(dp182
g19
S'curve'
p183
sS'x'
I836
sg21
I01
sS'y'
I58
sa(dp184
S'y'
I58
sS'x'
I903
sg21
I00
sa(dp185
S'y'
I9
sS'x'
I970
sg21
I00
sa(dp186
g19
S'curve'
p187
sS'x'
I970
sg21
I01
sS'y'
I-98
sa(dp188
S'y'
I-246
sS'x'
I970
sg21
I00
sa(dp189
S'y'
I-350
sS'x'
I844
sg21
I00
sa(dp190
g19
S'curve'
p191
sS'x'
I696
sg21
I01
sS'y'
I-350
sa(dp192
S'y'
I-350
sS'x'
I562
sg21
I00
sa(dp193
S'y'
I-281
sS'x'
I452
sg21
I00
sa(dp194
g19
S'curve'
p195
sS'x'
I452
sg21
I01
sS'y'
I-186
sa(dp196
S'y'
I-118
sS'x'
I452
sg21
I00
sa(dp197
S'y'
I-69
sS'x'
I501
sg21
I00
sa(dp198
g19
S'curve'
p199
sS'x'
I602
sg21
I00
sS'y'
I-69
sa(dp200
g19
S'line'
p201
sS'x'
I602
sg21
I00
sS'y'
I-161
sasasS'components'
p202
(lp203
sS'anchors'
p204
(lp205
sss."
EndChar

StartChar: tml_Above
Encoding: 5 3064 5
GlifName: tml_A_bove
Width: 1144
VWidth: 0
GlyphClass: 2
Flags: W
LayerCount: 2
Back
Fore
SplineSet
338 755 m 256
 542 755 640 550 640 359 c 256
 640 136 580 0 484 0 c 256
 428 0 362 34 362 153 c 256
 362 302 458 385 571 385 c 256
 693 385 764 302 760 191 c 256
 758 124 734 70 714 42 c 257
 1029 42 l 258
 1065 42 1077 49 1077 68 c 256
 1077 82 1071 88 1031 112 c 258
 908 189 l 257
 840 227 815 270 815 313 c 256
 815 393 868 420 918 420 c 256
 989 420 1034 359 1009 250 c 258
 918 -148 l 257
 875 -148 l 257
 961 230 l 258
 988 333 962 378 916 378 c 256
 876 378 857 348 857 317 c 256
 857 291 869 264 898 246 c 258
 1037 158 l 258
 1100 121 1114 106 1114 77 c 256
 1114 32 1094 0 1033 0 c 258
 655 0 l 257
 655 31 l 257
 696 86 718 129 718 189 c 256
 718 293 652 345 572 345 c 256
 476 345 405 268 405 153 c 256
 405 78 431 42 479 42 c 256
 559 42 598 184 598 367 c 256
 598 526 514 711 334 711 c 256
 220 711 72 593 72 343 c 256
 72 220 87 12 194 12 c 256
 262 12 287 95 287 180 c 256
 287 265 262 358 188 358 c 256
 111 358 72 258 90 140 c 257
 54 182 l 257
 48 330 109 399 188 399 c 256
 277 399 327 311 327 187 c 256
 327 73 285 -30 192 -30 c 256
 48 -30 30 221 30 350 c 256
 30 568 147 755 338 755 c 256
  PathStart: -2
EndSplineSet
PickledDataWithLists: "(dp1
S'com.typemytype.robofont.guides'
p2
(lp3
(dp4
S'y'
I755
sS'x'
I-218
sS'angle'
p5
I0
sS'isGlobal'
p6
I00
sas."
EndChar

StartChar: tml_Ai
Encoding: 6 2960 6
GlifName: tml_A_i
Width: 749
VWidth: 0
GlyphClass: 2
Flags: W
LayerCount: 2
Back
Fore
SplineSet
33 21 m 256
 33 197 213 199 368 218 c 256
 539 239 684 256 684 402 c 256
 684 482 647 539 555 539 c 256
 449 539 413 431 414 299 c 257
 372 299 l 257
 375 469 424 581 555 581 c 256
 663 581 726 509 726 402 c 256
 726 202 523 191 369 174 c 256
 178 153 75 143 75 21 c 256
 75 -54 137 -113 223 -113 c 256
 307 -113 370 -78 370 74 c 257
 413 74 l 257
 413 -54 457 -112 546 -111 c 256
 643 -110 687 -22 655 75 c 257
 697 81 l 257
 718 12 719 -153 542 -153 c 256
 418 -153 390 -57 390 -57 c 256
 390 -57 370 -155 217 -155 c 256
 126 -155 33 -99 33 21 c 256
  PathStart: -2
372 299 m 257
 374 432 340 542 228 542 c 256
 137 542 72 489 72 370 c 256
 72 305 108 274 152 274 c 256
 200 274 232 318 232 362 c 256
 232 417 203 455 159 455 c 256
 94 455 72 405 72 369 c 257
 41 380 l 257
 41 453 102 495 157 495 c 256
 199 495 272 467 272 362 c 256
 272 273 214 234 152 234 c 256
 71 234 29 294 30 384 c 256
 31 513 116 583 231 582 c 256
 391 581 413 426 414 299 c 257
 372 299 l 257
EndSplineSet
EndChar

StartChar: tml_Anusvara
Encoding: 7 2946 7
GlifName: tml_A_nusvara
Width: 1
VWidth: 0
GlyphClass: 2
Flags: W
LayerCount: 2
Back
Fore
SplineSet
-105 702 m 256
 -105 760 -59 807 0 807 c 256
 59 807 106 760 106 702 c 256
 106 644 59 596 0 596 c 256
 -59 596 -105 644 -105 702 c 256
  PathStart: -2
67 702 m 256
 67 740 36 767 -2 767 c 256
 -39 767 -67 740 -67 702 c 256
 -67 665 -39 635 -2 635 c 256
 36 635 67 665 67 702 c 256
  PathStart: -2
EndSplineSet
PickledDataWithLists: "(dp1
S'com.schriftgestaltung.Glyphs.ColorIndex'
p2
I0
sS'public.markColor'
p3
S'0.85,0.26,0.06,1'
p4
s."
EndChar

StartChar: tml_CU
Encoding: 10 -1 10
GlifName: tml_C_U_
Width: 638
VWidth: 0
GlyphClass: 2
Flags: W
LayerCount: 2
Back
Fore
SplineSet
524 307 m 257
 524 0 l 257
 482 0 l 257
 482 307 l 257
 524 307 l 257
608 341 m 257
 608 299 l 257
 512 299 l 257
 512 341 l 257
 608 341 l 257
EndSplineSet
Refer: 12 2970 N 1 0 0 1 0 0 2
EndChar

StartChar: tml_CUu
Encoding: 11 -1 11
GlifName: tml_C_U_u
Width: 974
VWidth: 0
GlyphClass: 2
Flags: W
LayerCount: 2
Back
Fore
SplineSet
525 -274 m 256
 240 -273 59 -94 58 217 c 256
 57 358 101 482 162 564 c 257
 200 545 l 257
 146 474 101 352 101 218 c 256
 101 -30 236 -232 525 -232 c 256
 753 -232 860 -88 860 25 c 256
 860 92 836 137 789 137 c 256
 722 137 726 49 726 25 c 257
 693 55 l 257
 693 118 725 179 789 179 c 256
 858 179 902 121 902 22 c 256
 902 -126 765 -275 525 -274 c 256
726 307 m 257
 726 0 l 257
 684 0 l 257
 684 307 l 257
 726 307 l 257
810 341 m 257
 810 299 l 257
 714 299 l 257
 714 341 l 257
 810 341 l 257
EndSplineSet
Refer: 12 2970 N 1 0 0 1 202 0 2
EndChar

StartChar: tml_Ca
Encoding: 12 2970 12
GlifName: tml_C_a
Width: 552
VWidth: 0
GlyphClass: 2
Flags: W
AnchorPoint: "MatraIi" 462 560 basechar 0
AnchorPoint: "MatraI.stylalt1" 109 304 basechar 0
AnchorPoint: "virama" 367 0 basechar 0
AnchorPoint: "MatraI.alt2" 462 560 basechar 0
AnchorPoint: "MatraIi.stylalt1" 109 304 basechar 0
LayerCount: 2
Back
Fore
SplineSet
183 341 m 258
 512 341 l 257
 512 299 l 257
 201 299 l 258
 114 299 72 248 72 177 c 256
 72 96 128 43 209 43 c 256
 282 43 347 86 347 207 c 258
 347 289 l 257
 347 318 l 257
 347 518 l 257
 191 518 l 257
 191 309 l 257
 149 309 l 257
 149 560 l 257
 512 560 l 257
 512 518 l 257
 389 518 l 257
 389 207 l 258
 389 104 348 1 213 1 c 256
 104 1 33 68 30 175 c 256
 27 272 86 341 183 341 c 258
  PathStart: -2
EndSplineSet
EndChar

StartChar: tml_Credit
Encoding: 13 3063 13
GlifName: tml_C_redit
Width: 994
VWidth: 0
GlyphClass: 2
Flags: W
LayerCount: 2
Back
Fore
SplineSet
731 -25 m 256
 642 -25 570 45 570 150 c 256
 570 270 635 404 802 404 c 256
 963 404 1032 285 1032 184 c 256
 1032 89 987 35 972 16 c 257
 934 36 l 257
 962 67 990 110 990 184 c 256
 990 280 924 362 802 362 c 256
 679 362 612 263 612 150 c 256
 612 76 654 17 731 17 c 256
 800 17 831 74 831 133 c 256
 831 274 669 261 587 261 c 258
 467 261 l 257
 467 303 l 257
 566 303 l 258
 590 303 613 303 636 302 c 256
 766 299 875 278 873 133 c 256
 872 43 819 -25 731 -25 c 256
934 0 m 257
 934 36 l 257
 982 42 l 257
 1114 42 l 257
 1114 0 l 257
 934 0 l 257
EndSplineSet
Refer: 16 2958 N 1 0 0 1 0 0 2
EndChar

StartChar: tml_Day
Encoding: 14 3059 14
GlifName: tml_D_ay
Width: 600
VWidth: 0
GlyphClass: 2
Flags: W
LayerCount: 2
Back
Fore
SplineSet
171 -20 m 256
 78 -20 30 86 30 237 c 256
 30 434 111 571 255 571 c 256
 369 571 463 475 463 280 c 256
 463 174 433 84 401 1 c 257
 367 34 l 257
 381 63 420 169 420 281 c 256
 420 428 359 531 257 531 c 256
 138 531 71 407 71 238 c 256
 71 151 89 22 173 22 c 256
 231 22 264 84 264 172 c 256
 264 265 227 314 174 314 c 256
 108 314 71 236 78 148 c 257
 44 168 l 257
 45 290 107 354 177 354 c 256
 244 354 304 291 304 171 c 256
 304 59 252 -20 171 -20 c 256
367 34 m 257
 416 43 l 257
 587 43 l 257
 587 1 l 257
 367 1 l 257
 367 34 l 257
EndSplineSet
EndChar

StartChar: tml_Debit
Encoding: 15 3062 15
GlifName: tml_D_ebit
Width: 510
VWidth: 0
GlyphClass: 2
Flags: W
LayerCount: 2
Back
Fore
SplineSet
226 -342 m 256
 88 -342 -18 -286 -18 -192 c 256
 -18 -128 27 -106 93 -106 c 258
 588 -106 l 257
 588 560 l 257
 630 560 l 257
 630 -148 l 257
 92 -148 l 258
 53 -148 24 -159 24 -192 c 256
 24 -253 100 -300 224 -300 c 256
 392 -300 437 -155 437 4 c 257
 480 2 l 257
 480 -184 413 -342 226 -342 c 256
  PathStart: -2
EndSplineSet
Refer: 94 2986 N 1 0 0 1 0 0 2
EndChar

StartChar: tml_E
Encoding: 16 2958 16
GlifName: tml_E_
Width: 582
VWidth: 0
GlyphClass: 2
Flags: W
LayerCount: 2
Back
Fore
SplineSet
171 -24 m 256
 78 -24 30 82 30 233 c 256
 30 430 111 560 255 560 c 258
 572 560 l 257
 572 520 l 257
 469 520 l 257
 469 0 l 257
 427 0 l 257
 427 520 l 257
 257 520 l 258
 138 520 71 403 71 234 c 256
 71 147 89 18 173 18 c 256
 231 18 264 80 264 168 c 256
 264 261 227 310 174 310 c 256
 108 310 71 232 78 144 c 257
 44 164 l 257
 45 286 107 350 177 350 c 256
 244 350 304 287 304 167 c 256
 304 55 252 -24 171 -24 c 256
EndSplineSet
EndChar

StartChar: tml_Ee
Encoding: 17 2959 17
GlifName: tml_E_e
Width: 582
VWidth: 0
GlyphClass: 2
Flags: W
LayerCount: 2
Back
Fore
SplineSet
181 -214 m 257
 428 17 l 257
 469 0 l 257
 207 -241 l 257
 181 -214 l 257
EndSplineSet
Refer: 16 2958 N 1 0 0 1 0 0 2
EndChar

StartChar: tml_Five
Encoding: 19 3051 19
GlifName: tml_F_ive
Width: 1138
VWidth: 0
GlyphClass: 2
Flags: W
LayerCount: 2
Back
Fore
SplineSet
342 0 m 257
 342 560 l 257
 746 560 l 257
 746 518 l 257
 627 518 l 257
 627 0 l 257
 585 0 l 257
 585 518 l 257
 384 518 l 257
 384 0 l 257
 342 0 l 257
1057 309 m 258
 1057 -1 l 257
 1013 -1 l 257
 1013 285 l 258
 1013 641 774 758 541 758 c 256
 266 758 83 579 83 254 c 256
 83 -20 273 -224 512 -223 c 256
 750 -222 821 -31 821 107 c 256
 821 252 758 299 707 299 c 256
 650 299 627 243 627 204 c 257
 603 222 l 257
 603 293 652 339 709 339 c 256
 810 339 863 235 863 107 c 256
 863 -66 780 -266 502 -265 c 256
 267 -264 41 -70 41 254 c 256
 41 575 224 800 535 801 c 256
 876 802 1057 594 1057 309 c 258
  PathStart: -2
EndSplineSet
EndChar

StartChar: tml_Four
Encoding: 20 3050 20
GlifName: tml_F_our
Width: 552
VWidth: 0
GlyphClass: 2
Flags: W
LayerCount: 2
Back
Fore
SplineSet
586 341 m 257
 586 560 l 257
 628 560 l 257
 628 299 l 257
 459 299 l 257
 459 341 l 257
 586 341 l 257
EndSplineSet
Refer: 12 2970 N 1 0 0 1 0 0 2
EndChar

StartChar: tml_Ha
Encoding: 21 3001 21
GlifName: tml_H_a
Width: 1244
VWidth: 0
GlyphClass: 2
Flags: W
AnchorPoint: "MatraUu" 1038 573 basechar 0
AnchorPoint: "virama" 600 0 basechar 0
AnchorPoint: "MatraI.alt6" 1107 561 basechar 0
AnchorPoint: "MatraU" 1038 573 basechar 0
AnchorPoint: "MatraIi.alt1" 1118 556 basechar 0
LayerCount: 2
Back
Fore
SplineSet
171 -20 m 256
 78 -20 30 86 30 237 c 256
 30 434 111 571 255 571 c 256
 369 571 463 475 463 280 c 256
 463 174 433 84 401 1 c 257
 367 34 l 257
 381 63 420 169 420 281 c 256
 420 428 359 531 257 531 c 256
 138 531 71 407 71 238 c 256
 71 151 89 22 173 22 c 256
 231 22 264 84 264 172 c 256
 264 265 227 314 174 314 c 256
 108 314 71 236 78 148 c 257
 44 168 l 257
 45 290 107 354 177 354 c 256
 244 354 304 291 304 171 c 256
 304 59 252 -20 171 -20 c 256
62 -236 m 257
 63 -129 122 -96 188 -96 c 258
 942 -96 l 258
 1140 -96 1172 23 1172 234 c 256
 1172 446 1151 531 1035 531 c 256
 950 531 922 470 921 390 c 257
 896 431 l 257
 896 498 939 573 1038 573 c 256
 1180 573 1214 461 1214 234 c 256
 1214 2 1175 -137 948 -137 c 258
 193 -138 l 258
 111 -138 105 -197 104 -236 c 257
 62 -236 l 257
914 426 m 257
 878 390 l 257
 878 493 842 531 770 531 c 256
 700 531 657 483 657 393 c 258
 657 80 l 257
 615 80 l 257
 615 404 l 258
 615 502 671 575 776 574 c 256
 852 573 911 524 914 426 c 257
  PathStart: -2
367 1 m 257
 367 34 l 257
 416 43 l 257
 615 43 l 257
 615 209 l 257
 657 209 l 257
 657 1 l 257
 367 1 l 257
878 0 m 257
 878 460 l 257
 922 460 l 257
 920 0 l 257
 878 0 l 257
EndSplineSet
EndChar

StartChar: tml_Hundred
Encoding: 22 3057 22
GlifName: tml_H_undred
Width: 768
VWidth: 0
GlyphClass: 2
Flags: W
LayerCount: 2
Back
Fore
SplineSet
180 578 m 256
 263 578 322 529 322 402 c 257
 290 391 l 257
 290 484 264 536 185 536 c 256
 131 536 87 508 87 416 c 258
 87 1 l 257
 45 1 l 257
 45 423 l 258
 45 515 91 578 180 578 c 256
  PathStart: -2
290 1 m 257
 290 504 l 257
 303 561 l 257
 708 561 l 257
 708 519 l 257
 598 519 l 257
 598 1 l 257
 556 1 l 257
 556 519 l 257
 332 519 l 257
 332 1 l 257
 290 1 l 257
EndSplineSet
EndChar

StartChar: tml_I
Encoding: 23 2951 23
GlifName: tml_I_
Width: 969
VWidth: 0
GlyphClass: 2
Flags: W
LayerCount: 2
Back
Fore
SplineSet
496 531 m 256
 381 531 335 445 335 383 c 256
 335 327 373 291 424 291 c 256
 474 291 509 327 509 379 c 256
 509 428 479 469 423 469 c 256
 370 469 336 432 335 384 c 257
 306 383 l 257
 306 443 352 510 430 510 c 256
 507 510 551 444 551 376 c 256
 551 303 501 249 424 249 c 256
 350 249 293 300 293 385 c 256
 293 489 379 573 501 573 c 256
 636 573 734 469 734 307 c 256
 734 23 431 -210 218 -210 c 256
 120 -210 30 -160 30 -46 c 256
 30 135 260 216 424 216 c 256
 595 216 815 129 815 -46 c 256
 815 -164 716 -210 614 -210 c 256
 382 -210 83 25 83 362 c 256
 83 610 245 754 513 754 c 256
 803 754 939 586 939 239 c 258
 939 0 l 257
 897 0 l 257
 897 223 l 258
 897 567 761 711 512 711 c 256
 257 711 128 561 128 357 c 256
 128 61 400 -168 616 -168 c 256
 719 -168 773 -116 773 -49 c 256
 773 56 643 174 417 174 c 256
 195 174 72 60 72 -47 c 256
 72 -120 132 -168 216 -168 c 256
 414 -168 692 63 692 315 c 256
 692 448 608 531 496 531 c 256
  PathStart: -2
EndSplineSet
EndChar

StartChar: tml_Ii
Encoding: 24 2952 24
GlifName: tml_I_i
Width: 600
VWidth: 0
GlyphClass: 2
Flags: W
LayerCount: 2
Back
Fore
SplineSet
46 0 m 257
 46 560 l 257
 575 560 l 257
 575 518 l 257
 382 518 l 257
 379 0 l 257
 334 0 l 257
 337 518 l 257
 88 518 l 257
 88 0 l 257
 46 0 l 257
177 255 m 256
 177 276 194 292 215 292 c 256
 236 292 252 276 252 255 c 256
 252 234 236 217 215 217 c 256
 194 217 177 234 177 255 c 256
457 255 m 256
 457 276 474 292 495 292 c 256
 516 292 532 276 532 255 c 256
 532 234 516 217 495 217 c 256
 474 217 457 234 457 255 c 256
EndSplineSet
EndChar

StartChar: tml_Ja
Encoding: 25 2972 25
GlifName: tml_J_a
Width: 756
VWidth: 0
GlyphClass: 2
Flags: W
AnchorPoint: "MatraI.alt7" 636 562 basechar 0
AnchorPoint: "virama" 381 0 basechar 0
AnchorPoint: "MatraUu" 553 581 basechar 0
AnchorPoint: "MatraU" 553 581 basechar 0
AnchorPoint: "MatraIi.alt1" 646 556 basechar 0
LayerCount: 2
Back
Fore
SplineSet
199 -155 m 256
 108 -155 23 -99 23 21 c 256
 23 197 216 198 358 218 c 256
 528 242 674 258 674 402 c 256
 674 480 637 539 553 539 c 256
 441 539 404 435 404 306 c 257
 404 304 404 301 404 299 c 257
 362 299 l 257
 365 469 413 581 553 581 c 256
 653 581 716 516 716 402 c 256
 716 205 513 192 359 174 c 256
 198 155 65 141 65 21 c 256
 65 -54 119 -113 205 -113 c 256
 347 -113 381 124 561 124 c 256
 655 124 700 63 700 -14 c 256
 700 -100 632 -156 551 -154 c 258
 454 -154 l 257
 454 -112 l 257
 548 -112 l 258
 587 -111 656 -96 656 -14 c 256
 656 47 619 82 554 82 c 256
 406 82 391 -155 199 -155 c 256
142 234 m 256
 61 234 19 294 20 384 c 256
 21 513 106 583 221 582 c 256
 381 581 403 426 404 299 c 257
 362 299 l 257
 362 303 362 306 362 310 c 257
 362 438 327 542 218 542 c 256
 127 542 62 489 62 370 c 256
 62 305 98 274 142 274 c 256
 190 274 222 318 222 362 c 256
 222 417 193 455 149 455 c 256
 84 455 62 405 62 369 c 257
 31 380 l 257
 31 453 92 495 147 495 c 256
 189 495 262 467 262 362 c 256
 262 273 204 234 142 234 c 256
EndSplineSet
EndChar

StartChar: tml_KSsU
Encoding: 26 -1 26
GlifName: tml_K_S_sU_
Width: 1793
VWidth: 0
GlyphClass: 2
Flags: W
LayerCount: 2
Back
Fore
SplineSet
1576 211 m 256
 1492 211 1438 282 1438 373 c 256
 1438 500 1504 547 1560 547 c 257
 1572 518 l 257
 1512 518 1480 456 1480 378 c 256
 1480 302 1519 253 1572 253 c 256
 1637 253 1671 312 1671 385 c 256
 1671 458 1645 518 1570 518 c 258
 1367 518 l 257
 1367 468 l 257
 1325 468 l 257
 1325 560 l 257
 1552 560 l 258
 1643 560 1713 515 1713 385 c 256
 1713 272 1655 211 1576 211 c 256
EndSplineSet
Refer: 28 -1 N 1 0 0 1 -5 0 2
EndChar

StartChar: tml_KSsUu
Encoding: 27 -1 27
GlifName: tml_K_S_sU_u
Width: 1979
VWidth: 0
GlyphClass: 2
Flags: W
LayerCount: 2
Back
Fore
SplineSet
1830 196 m 257
 1791 212 l 257
 1801 227 1847 297 1847 404 c 256
 1847 519 1785 603 1666 603 c 256
 1549 603 1470 519 1470 397 c 256
 1470 310 1520 260 1576 260 c 256
 1632 260 1665 307 1665 385 c 256
 1665 490 1579 518 1497 518 c 258
 1367 518 l 257
 1367 468 l 257
 1325 468 l 257
 1325 560 l 257
 1502 560 l 258
 1510 560 1519 560 1527 559 c 256
 1631 553 1708 502 1708 375 c 256
 1708 276 1655 218 1573 218 c 256
 1484 218 1428 293 1428 397 c 256
 1428 538 1523 645 1666 645 c 256
 1824 645 1889 523 1889 414 c 256
 1889 276 1830 196 1830 196 c 257
EndSplineSet
Refer: 28 -1 N 1 0 0 1 -5 0 2
EndChar

StartChar: tml_KSsa
Encoding: 28 -1 28
GlifName: tml_K_S_sa
Width: 1402
VWidth: 0
GlyphClass: 2
Flags: W
AnchorPoint: "MatraIi.alt1" 1176 556 basechar 0
AnchorPoint: "MatraI.alt8" 1168 561 basechar 0
AnchorPoint: "virama" 738 0 basechar 0
LayerCount: 2
Back
Fore
SplineSet
837 1 m 257
 837 34 l 257
 886 43 l 257
 1330 43 l 257
 1330 472 l 257
 1372 472 l 257
 1372 1 l 257
 837 1 l 257
1227 -146 m 257
 1185 -146 l 257
 1185 438 l 258
 1185 491 1162 531 1117 531 c 256
 1034 531 1011 456 1011 400 c 256
 1011 299 1080 197 1198 197 c 256
 1304 197 1329 298 1330 379 c 257
 1367 376 l 257
 1367 271 1338 155 1198 155 c 256
 1080 155 971 240 969 410 c 256
 968 507 1035 573 1110 573 c 256
 1227 573 1227 463 1227 438 c 258
 1227 -146 l 257
485 197 m 256
 485 374 586 475 720 475 c 256
 866 475 938 373 938 218 c 256
 938 105 891 40 875 13 c 257
 837 34 l 257
 854 59 897 117 897 218 c 256
 897 335 844 435 722 435 c 256
 603 435 526 337 526 198 c 256
 526 111 563 22 647 22 c 256
 706 22 734 78 734 151 c 256
 734 273 621 299 547 299 c 258
 461 299 l 257
 461 341 l 257
 552 341 l 258
 655 341 774 296 774 150 c 256
 774 46 728 -20 645 -20 c 256
 555 -20 485 46 485 197 c 256
  PathStart: -2
EndSplineSet
Refer: 12 2970 N 1 0 0 1 15 0 2
EndChar

StartChar: tml_KU
Encoding: 29 -1 29
GlifName: tml_K_U_
Width: 850
VWidth: 0
GlyphClass: 2
Flags: W
LayerCount: 2
Back
Fore
SplineSet
447 -274 m 256
 223 -274 44 -112 44 129 c 256
 44 273 94 380 158 457 c 257
 196 438 l 257
 137 367 84 270 86 129 c 256
 89 -80 248 -232 447 -232 c 256
 631 -232 780 -122 780 73 c 256
 780 250 706 299 599 299 c 258
 398 299 l 258
 311 299 269 248 269 177 c 256
 269 96 325 43 406 43 c 256
 479 43 544 86 544 207 c 258
 544 289 l 257
 544 323 l 257
 544 518 l 257
 388 518 l 257
 388 309 l 257
 346 309 l 257
 346 560 l 257
 709 560 l 257
 709 518 l 257
 586 518 l 257
 586 207 l 258
 586 104 545 1 410 1 c 256
 301 1 230 68 227 175 c 256
 224 272 283 341 380 341 c 258
 609 341 l 258
 709 341 831 270 822 73 c 256
 810 -179 639 -274 447 -274 c 256
EndSplineSet
EndChar

StartChar: tml_KUu
Encoding: 30 -1 30
GlifName: tml_K_U_u
Width: 1085
VWidth: 0
GlyphClass: 2
Flags: W
LayerCount: 2
Back
Fore
SplineSet
470 197 m 256
 470 374 571 475 705 475 c 256
 851 475 923 373 923 218 c 256
 923 105 876 40 860 13 c 257
 822 34 l 257
 839 59 882 117 882 218 c 256
 882 335 829 435 707 435 c 256
 588 435 511 337 511 198 c 256
 511 111 548 22 632 22 c 256
 691 22 719 78 719 151 c 256
 719 273 606 299 532 299 c 258
 446 299 l 257
 446 341 l 257
 537 341 l 258
 640 341 759 296 759 150 c 256
 759 46 713 -20 630 -20 c 256
 540 -20 470 46 470 197 c 256
  PathStart: -2
822 34 m 257
 871 43 l 257
 1045 43 l 257
 1045 1 l 257
 822 1 l 257
 822 34 l 257
EndSplineSet
Refer: 12 2970 N 1 0 0 1 10 0 2
EndChar

StartChar: tml_Ka
Encoding: 31 2965 31
GlifName: tml_K_a
Width: 641
VWidth: 0
GlyphClass: 2
Flags: W
AnchorPoint: "MatraIi" 462 560 basechar 0
AnchorPoint: "MatraI.stylalt1" 109 304 basechar 0
AnchorPoint: "virama" 373 0 basechar 0
AnchorPoint: "MatraI.alt2" 462 560 basechar 0
AnchorPoint: "MatraIi.stylalt1" 109 304 basechar 0
AnchorPoint: "MatraI.alt1" 462 560 basechar 0
LayerCount: 2
Back
Fore
SplineSet
183 341 m 258
 432 341 l 258
 554 341 611 275 611 167 c 256
 611 43 538 0 446 0 c 258
 425 0 l 257
 425 42 l 257
 441 42 l 258
 543 42 569 105 569 167 c 256
 569 257 520 299 417 299 c 258
 201 299 l 258
 114 299 72 248 72 177 c 256
 72 96 128 43 209 43 c 256
 282 43 347 86 347 207 c 258
 347 289 l 257
 347 326 l 257
 347 518 l 257
 191 518 l 257
 191 309 l 257
 149 309 l 257
 149 560 l 257
 512 560 l 257
 512 518 l 257
 389 518 l 257
 389 207 l 258
 389 104 348 1 213 1 c 256
 104 1 33 68 30 175 c 256
 27 272 86 341 183 341 c 258
  PathStart: -2
EndSplineSet
EndChar

StartChar: tml_LU
Encoding: 32 -1 32
GlifName: tml_L_U_
Width: 874
VWidth: 0
GlyphClass: 2
Flags: W
LayerCount: 2
Back
Fore
SplineSet
583 0 m 257
 583 -173 519 -342 303 -342 c 256
 137 -342 57 -275 57 -193 c 256
 57 -131 104 -106 152 -106 c 258
 802 -106 l 257
 802 573 l 257
 844 573 l 257
 844 -148 l 257
 159 -148 l 258
 122 -148 99 -156 99 -198 c 256
 99 -248 169 -300 299 -300 c 256
 461 -300 541 -190 541 0 c 257
 583 0 l 257
EndSplineSet
Refer: 34 2994 N 1 0 0 1 0 0 2
EndChar

StartChar: tml_LUu
Encoding: 33 -1 33
GlifName: tml_L_U_u
Width: 1194
VWidth: 0
GlyphClass: 2
Flags: W
LayerCount: 2
Back
Fore
SplineSet
1166 573 m 257
 1166 531 l 257
 1066 531 l 257
 1066 -13 l 257
 1024 -13 l 257
 1024 531 l 257
 844 531 l 257
 844 573 l 257
 1166 573 l 257
EndSplineSet
Refer: 32 -1 N 1 0 0 1 0 0 2
EndChar

StartChar: tml_La
Encoding: 34 2994 34
GlifName: tml_L_a
Width: 739
VWidth: 0
GlyphClass: 2
Flags: W
AnchorPoint: "virama" 390 0 basechar 0
AnchorPoint: "MatraAi.alt" 33 190 basechar 0
AnchorPoint: "MatraIi.alt2" 589 584 basechar 0
AnchorPoint: "MatraI.alt5" 572 573 basechar 0
LayerCount: 2
Back
Fore
SplineSet
171 -20 m 256
 78 -20 30 86 30 237 c 256
 30 434 108 571 247 571 c 256
 376 571 439 475 435 342 c 258
 432 198 l 257
 426 92 470 21 545 21 c 256
 605 21 666 84 666 249 c 256
 666 363 637 475 552 561 c 257
 589 584 l 257
 653 524 709 398 709 253 c 256
 709 152 682 -23 546 -23 c 256
 450 -23 387 61 393 194 c 258
 396 352 l 258
 400 454 346 531 248 531 c 256
 126 531 71 407 71 238 c 256
 71 151 89 22 173 22 c 256
 231 22 264 84 264 172 c 256
 264 265 227 314 174 314 c 256
 108 314 71 236 78 148 c 257
 44 168 l 257
 45 290 107 354 177 354 c 256
 244 354 304 291 304 171 c 256
 304 59 252 -20 171 -20 c 256
EndSplineSet
EndChar

StartChar: tml_LlU
Encoding: 35 -1 35
GlifName: tml_L_lU_
Width: 1152
VWidth: 0
GlyphClass: 2
Flags: W
LayerCount: 2
Back
Fore
SplineSet
615 -265 m 256
 219 -264 30 -40 30 244 c 256
 30 418 97 532 126 570 c 257
 166 551 l 257
 125 504 72 379 72 244 c 256
 72 10 222 -224 621 -223 c 256
 919 -222 1080 -73 1080 107 c 256
 1080 252 1017 299 966 299 c 256
 909 299 886 243 886 204 c 257
 862 222 l 257
 862 293 911 339 968 339 c 256
 1069 339 1122 235 1122 107 c 256
 1122 -109 935 -266 615 -265 c 256
EndSplineSet
Refer: 37 2995 N 1 0 0 1 165 0 2
EndChar

StartChar: tml_LlUu
Encoding: 36 -1 36
GlifName: tml_L_lU_u
Width: 1304
VWidth: 0
GlyphClass: 2
Flags: W
LayerCount: 2
Back
Fore
SplineSet
688 -223 m 256
 986 -222 1232 -100 1232 120 c 256
 1232 265 1169 299 1118 299 c 256
 1061 299 1038 243 1038 204 c 257
 1014 222 l 257
 1014 293 1063 339 1120 339 c 256
 1221 339 1274 248 1274 120 c 256
 1274 -138 1002 -266 682 -265 c 256
 385 -264 34 -66 34 230 c 256
 34 475 131 574 227 573 c 256
 318 573 355 492 355 428 c 256
 355 362 316 287 233 287 c 256
 154 287 114 362 114 419 c 256
 114 472 138 553 220 555 c 257
 229 531 l 257
 172 531 156 465 156 425 c 256
 156 379 184 329 233 329 c 256
 281 329 313 373 313 428 c 256
 313 495 278 531 229 531 c 256
 91 531 76 316 76 239 c 256
 76 -15 379 -224 688 -223 c 256
  PathStart: -2
EndSplineSet
Refer: 37 2995 N 1 0 0 1 317 0 2
EndChar

StartChar: tml_Lla
Encoding: 37 2995 37
GlifName: tml_L_la
Width: 887
VWidth: 0
GlyphClass: 2
Flags: W
AnchorPoint: "MatraIi" 792 560 basechar 0
AnchorPoint: "MatraAi.alt" 43 190 basechar 0
AnchorPoint: "virama" 451 0 basechar 0
AnchorPoint: "MatraI.alt2" 792 560 basechar 0
LayerCount: 2
Back
Fore
SplineSet
181 -20 m 256
 88 -20 40 86 40 237 c 256
 40 434 121 571 265 571 c 256
 379 571 473 485 473 280 c 257
 430 281 l 257
 430 442 369 531 267 531 c 256
 148 531 81 407 81 238 c 256
 81 151 99 22 183 22 c 256
 241 22 274 84 274 172 c 256
 274 265 237 314 184 314 c 256
 118 314 81 236 88 148 c 257
 54 168 l 257
 55 290 117 354 187 354 c 256
 254 354 314 291 314 171 c 256
 314 59 262 -20 181 -20 c 256
430 1 m 257
 430 440 l 257
 430 460 l 257
 430 560 l 257
 857 560 l 257
 857 518 l 257
 721 518 l 257
 721 1 l 257
 679 1 l 257
 679 518 l 257
 473 518 l 257
 473 1 l 257
 430 1 l 257
EndSplineSet
EndChar

StartChar: tml_LllU
Encoding: 38 -1 38
GlifName: tml_L_llU_
Width: 854
VWidth: 0
GlyphClass: 2
Flags: W
LayerCount: 2
Back
Fore
SplineSet
701 -189 m 256
 701 -80 553 -92 537 -140 c 257
 495 -140 l 257
 496 32 l 257
 538 33 l 257
 537 -92 l 257
 562 -49 743 -47 743 -188 c 256
 743 -287 654 -386 471 -386 c 256
 185 -386 30 -143 30 162 c 256
 30 333 79 475 138 572 c 257
 177 553 l 257
 135 485 72 338 72 161 c 256
 72 -87 195 -344 463 -344 c 256
 594 -344 701 -282 701 -189 c 256
  PathStart: -2
EndSplineSet
Refer: 43 2990 N 1 0 0 1 240 0 2
EndChar

StartChar: tml_LllUu
Encoding: 39 -1 39
GlifName: tml_L_llU_u
Width: 874
VWidth: 0
GlyphClass: 2
Flags: W
LayerCount: 2
Back
Fore
SplineSet
422 -386 m 256
 136 -386 -90 -143 -90 162 c 256
 -90 467 11 574 107 573 c 256
 198 573 235 492 235 428 c 256
 235 362 196 287 113 287 c 256
 34 287 -6 362 -6 419 c 256
 -6 472 30 543 100 545 c 257
 109 531 l 257
 52 531 36 465 36 425 c 256
 36 379 64 329 113 329 c 256
 161 329 193 373 193 428 c 256
 193 495 158 531 109 531 c 256
 -40 531 -48 238 -48 161 c 256
 -48 -87 146 -344 414 -344 c 256
 547 -344 701 -292 701 -189 c 256
 701 -80 553 -92 537 -140 c 257
 495 -140 l 257
 496 32 l 257
 538 33 l 257
 537 -92 l 257
 562 -49 743 -47 743 -188 c 256
 743 -287 634 -386 422 -386 c 256
EndSplineSet
Refer: 43 2990 N 1 0 0 1 240 0 2
EndChar

StartChar: tml_Llla
Encoding: 40 2996 40
GlifName: tml_L_lla
Width: 600
VWidth: 0
GlyphClass: 2
Flags: W
AnchorPoint: "MatraIi.alt1" 466 556 basechar 0
AnchorPoint: "MatraI.alt6" 455 561 basechar 0
AnchorPoint: "virama" 254 0 basechar 0
LayerCount: 2
Back
Fore
SplineSet
230 -293 m 256
 109 -293 30 -206 30 -83 c 257
 72 -83 l 257
 72 -164 118 -251 230 -251 c 256
 347 -251 377 -138 377 -138 c 256
 377 -138 383 -162 386 -159 c 257
 348 -159 256 -126 256 8 c 258
 256 456 l 258
 256 529 296 575 376 576 c 256
 534 577 583 426 584 299 c 256
 585 114 511 0 355 0 c 258
 30 0 l 257
 30 559 l 257
 72 559 l 257
 72 42 l 257
 347 42 l 258
 480 41 542 139 542 299 c 256
 542 445 471 535 378 535 c 256
 324 535 298 514 298 442 c 258
 298 8 l 258
 298 -47 317 -119 392 -119 c 258
 537 -119 l 257
 537 -159 l 257
 384 -159 l 257
 384 -159 411 -143 411 -146 c 256
 411 -177 357 -293 230 -293 c 256
EndSplineSet
EndChar

StartChar: tml_MU
Encoding: 41 -1 41
GlifName: tml_M_U_
Width: 934
VWidth: 0
GlyphClass: 2
Flags: W
LayerCount: 2
Back
Fore
SplineSet
43 164 m 256
 43 334 103 483 167 573 c 257
 202 555 l 257
 141 462 85 325 85 174 c 256
 85 -47 170 -215 358 -215 c 256
 487 -215 556 -116 556 29 c 257
 598 29 l 257
 598 -170 493 -257 358 -257 c 256
 149 -257 43 -81 43 164 c 256
  PathStart: -2
EndSplineSet
Refer: 43 2990 N 1 0 0 1 300 0 2
EndChar

StartChar: tml_MUu
Encoding: 42 -1 42
GlifName: tml_M_U_u
Width: 990
VWidth: 0
GlyphClass: 2
Flags: W
LayerCount: 2
Back
Fore
SplineSet
392 -225 m 256
 548 -225 632 -101 632 29 c 257
 674 29 l 257
 674 -160 541 -267 392 -267 c 256
 189 -267 30 -99 30 181 c 256
 30 334 72 573 227 573 c 256
 318 573 355 492 355 428 c 256
 355 362 316 287 233 287 c 256
 154 287 113 356 113 415 c 256
 113 468 140 555 227 555 c 257
 230 531 l 257
 189 531 150 499 150 425 c 256
 150 379 181 329 232 329 c 256
 279 329 313 371 313 424 c 256
 313 497 281 531 230 531 c 256
 117 531 72 338 72 196 c 256
 72 -24 185 -225 392 -225 c 256
  PathStart: -2
EndSplineSet
Refer: 43 2990 N 1 0 0 1 376 0 2
EndChar

StartChar: tml_Ma
Encoding: 43 2990 43
GlifName: tml_M_a
Width: 614
VWidth: 0
GlyphClass: 2
Flags: W
AnchorPoint: "MatraIi.alt1" 459 556 basechar 0
AnchorPoint: "MatraI.alt6" 447 561 basechar 0
AnchorPoint: "virama" 256 0 basechar 0
LayerCount: 2
Back
Fore
SplineSet
30 0 m 257
 30 559 l 257
 72 559 l 257
 72 42 l 257
 352 42 l 257
 359 0 l 257
 30 0 l 257
256 28 m 257
 256 434 l 258
 256 504 285 575 365 576 c 256
 528 577 583 426 584 299 c 256
 585 114 511 0 355 0 c 257
 347 42 l 257
 480 41 542 139 542 299 c 256
 542 445 469 534 376 534 c 256
 342 534 298 514 298 432 c 258
 298 28 l 257
 256 28 l 257
EndSplineSet
EndChar

StartChar: tml_MatraAa
Encoding: 44 3006 44
GlifName: tml_M_atraA_a
Width: 600
VWidth: 0
GlyphClass: 2
Flags: W
LayerCount: 2
Back
Fore
SplineSet
71 0 m 257
 71 560 l 257
 520 560 l 257
 520 518 l 257
 387 518 l 257
 384 0 l 257
 339 0 l 257
 342 518 l 257
 113 518 l 257
 113 0 l 257
 71 0 l 257
EndSplineSet
EndChar

StartChar: tml_MatraAi
Encoding: 45 3016 45
GlifName: tml_M_atraA_i
Width: 966
VWidth: 0
GlyphClass: 2
Flags: W
LayerCount: 2
Back
Fore
SplineSet
191 -20 m 256
 98 -20 50 86 50 237 c 256
 50 434 172 569 348 569 c 256
 503 569 674 470 674 214 c 256
 674 73 631 -23 526 -23 c 256
 424 -23 374 75 374 214 c 256
 374 425 468 568 660 568 c 256
 797 568 942 494 936 257 c 256
 932 90 864 0 762 -16 c 257
 755 24 l 257
 809 36 894 96 894 266 c 256
 894 437 802 528 659 528 c 256
 486 528 416 388 416 214 c 256
 416 115 447 19 526 19 c 256
 604 19 632 115 632 214 c 256
 632 455 470 528 347 528 c 256
 205 528 91 407 91 238 c 256
 91 151 109 22 193 22 c 256
 251 22 284 84 284 172 c 256
 284 265 247 314 194 314 c 256
 128 314 91 236 98 148 c 257
 64 168 l 257
 65 290 127 354 197 354 c 256
 264 354 324 291 324 171 c 256
 324 59 272 -20 191 -20 c 256
EndSplineSet
EndChar

StartChar: tml_MatraAi.alt
Encoding: 46 -1 46
GlifName: tml_M_atraA_i.alt
Width: 600
VWidth: 0
GlyphClass: 4
Flags: W
AnchorPoint: "MatraAi.alt" 421 189 mark 0
LayerCount: 2
Back
Fore
SplineSet
411 576 m 256
 411 413 231 270 231 133 c 256
 231 38 287 21 333 21 c 256
 391 21 421 71 421 189 c 257
 455 170 l 257
 455 31 402 -21 333 -21 c 256
 272 -21 189 10 189 133 c 256
 189 296 369 436 369 576 c 256
 369 648 325 758 218 758 c 256
 117 758 74 681 74 601 c 256
 74 555 111 517 164 517 c 256
 212 517 250 555 250 603 c 256
 250 659 213 695 166 695 c 256
 111 695 73 661 74 601 c 257
 43 601 l 257
 43 666 85 737 166 737 c 256
 238 737 292 682 292 603 c 256
 292 532 239 475 164 475 c 256
 88 475 32 532 32 612 c 256
 32 720 108 800 218 800 c 256
 332 800 411 704 411 576 c 256
  PathStart: -2
EndSplineSet
EndChar

StartChar: tml_MatraE
Encoding: 48 3014 48
GlifName: tml_M_atraE_
Width: 600
VWidth: 0
GlyphClass: 2
Flags: W
LayerCount: 2
Back
Fore
SplineSet
192 -30 m 256
 48 -30 30 221 30 350 c 256
 30 568 117 807 338 807 c 256
 540 807 537 546 537 395 c 258
 537 0 l 257
 495 0 l 257
 494 384 l 257
 494 564 488 763 334 763 c 256
 170 763 72 593 72 343 c 256
 72 283 76 204 91 138 c 256
 108 67 139 12 194 12 c 256
 262 12 287 95 287 180 c 256
 287 265 262 358 188 358 c 256
 111 358 72 258 90 140 c 257
 54 182 l 257
 48 330 109 399 188 399 c 256
 277 399 327 311 327 187 c 256
 327 73 285 -30 192 -30 c 256
EndSplineSet
EndChar

StartChar: tml_MatraEe
Encoding: 49 3015 49
GlifName: tml_M_atraE_e
Width: 488
VWidth: 0
GlyphClass: 2
Flags: W
LayerCount: 2
Back
Fore
SplineSet
289 -18 m 256
 150 -18 20 99 20 394 c 256
 20 659 150 806 289 806 c 256
 392 806 418 716 418 629 c 256
 418 511 367 445 296 445 c 256
 213 445 167 523 171 629 c 256
 175 738 218 787 296 789 c 257
 296 767 l 257
 236 767 214 698 213 636 c 256
 211 532 249 487 297 487 c 256
 343 487 378 536 378 636 c 256
 378 697 359 767 296 767 c 256
 152 767 62 593 62 394 c 256
 62 165 152 21 296 21 c 256
 359 21 378 101 378 152 c 256
 378 251 343 301 297 301 c 256
 249 301 211 262 213 152 c 256
 214 82 246 21 296 21 c 257
 296 -1 l 257
 218 1 175 58 171 157 c 256
 167 263 213 343 296 343 c 256
 367 343 418 277 418 159 c 256
 418 68 390 -18 289 -18 c 256
EndSplineSet
EndChar

StartChar: tml_MatraI
Encoding: 50 3007 50
GlifName: tml_M_atraI_
Width: 600
VWidth: 0
GlyphClass: 2
Flags: W
LayerCount: 2
Back
Fore
SplineSet
-236 550 m 257
 -191 703 -96 745 -14 746 c 256
 137 747 217 669 217 479 c 258
 218 0 l 257
 175 0 l 257
 175 479 l 258
 175 636 107 704 -14 704 c 256
 -95 704 -169 629 -194 524 c 257
 -236 550 l 257
EndSplineSet
EndChar

StartChar: tml_MatraI.alt1
Encoding: 51 -1 51
GlifName: tml_M_atraI_.alt1
Width: 459
VWidth: 0
GlyphClass: 4
Flags: W
AnchorPoint: "MatraI.alt1" 150 560 mark 0
LayerCount: 2
Back
Fore
SplineSet
135 526 m 257
 106 526 30 548 30 622 c 256
 30 706 113 758 211 758 c 256
 354 758 426 656 427 467 c 258
 429 1 l 257
 387 1 l 257
 386 471 l 258
 386 662 297 716 211 716 c 256
 127 716 72 679 72 622 c 256
 72 585 103 560 150 560 c 257
 135 526 l 257
EndSplineSet
EndChar

StartChar: tml_MatraI.alt2
Encoding: 52 -1 52
GlifName: tml_M_atraI_.alt2
Width: 416
VWidth: 0
GlyphClass: 4
Flags: W
AnchorPoint: "MatraI.alt2" 178 560 mark 0
LayerCount: 2
Back
Fore
SplineSet
169 526 m 257
 105 526 40 552 40 634 c 256
 40 702 99 758 191 758 c 256
 334 758 373 646 374 477 c 258
 376 1 l 257
 334 1 l 257
 333 481 l 258
 333 582 320 716 191 716 c 256
 120 716 82 678 82 634 c 256
 82 570 132 560 178 560 c 257
 169 526 l 257
EndSplineSet
EndChar

StartChar: tml_MatraI.alt3
Encoding: 53 -1 53
GlifName: tml_M_atraI_.alt3
Width: 249
VWidth: 0
GlyphClass: 4
Flags: W
AnchorPoint: "MatraI.alt3" -111 499 mark 0
LayerCount: 2
Back
Fore
SplineSet
-112 458 m 257
 -186 458 -264 495 -264 597 c 256
 -264 696 -184 758 -85 758 c 256
 48 758 109 655 110 507 c 258
 112 1 l 257
 70 1 l 257
 69 511 l 258
 69 639 11 716 -85 716 c 256
 -170 716 -222 665 -222 597 c 256
 -222 536 -182 500 -112 500 c 257
 -112 458 l 257
EndSplineSet
EndChar

StartChar: tml_MatraI.alt4
Encoding: 54 -1 54
GlifName: tml_M_atraI_.alt4
Width: 600
VWidth: 0
GlyphClass: 4
Flags: W
AnchorPoint: "MatraI.alt4" -83 560 mark 0
LayerCount: 2
Back
Fore
SplineSet
-83 518 m 257
 -143 518 -218 550 -218 631 c 256
 -218 695 -154 758 -55 758 c 256
 78 758 139 655 140 507 c 258
 142 0 l 257
 100 0 l 257
 99 511 l 258
 99 639 41 716 -55 716 c 256
 -124 716 -176 677 -176 631 c 256
 -176 590 -144 560 -83 560 c 257
 -83 518 l 257
EndSplineSet
EndChar

StartChar: tml_MatraI.alt5
Encoding: 55 -1 55
GlifName: tml_M_atraI_.alt5
Width: 600
VWidth: 0
GlyphClass: 4
Flags: W
AnchorPoint: "MatraI.alt5" -143 573 mark 0
LayerCount: 2
Back
Fore
SplineSet
-122 541 m 257
 -181 504 -270 535 -270 624 c 256
 -270 696 -203 758 -98 758 c 256
 35 758 120 666 121 497 c 258
 123 1 l 257
 81 1 l 257
 80 501 l 258
 80 642 8 716 -98 716 c 256
 -163 716 -228 683 -228 624 c 256
 -228 564 -174 554 -143 573 c 257
 -122 541 l 257
EndSplineSet
EndChar

StartChar: tml_MatraI.alt6
Encoding: 56 -1 56
GlifName: tml_M_atraI_.alt6
Width: 600
VWidth: 0
GlyphClass: 4
Flags: W
AnchorPoint: "MatraI.alt6" -129 561 mark 0
LayerCount: 2
Back
Fore
SplineSet
-141 530 m 257
 -162 537 -229 555 -229 621 c 256
 -229 704 -156 757 -64 757 c 256
 82 757 142 647 143 500 c 258
 143 0 l 257
 101 0 l 257
 100 480 l 258
 100 641 42 715 -64 715 c 256
 -134 715 -187 680 -187 623 c 256
 -187 584 -149 571 -129 561 c 257
 -141 530 l 257
EndSplineSet
EndChar

StartChar: tml_MatraI.alt7
Encoding: 57 -1 57
GlifName: tml_M_atraI_.alt7
Width: 600
VWidth: 0
GlyphClass: 4
Flags: W
AnchorPoint: "MatraI.alt7" 249 562 mark 0
LayerCount: 2
Back
Fore
SplineSet
239 530 m 257
 218 537 151 563 151 623 c 256
 151 706 224 757 316 757 c 256
 462 757 522 647 523 500 c 258
 523 0 l 257
 481 0 l 257
 480 480 l 258
 480 641 422 715 316 715 c 256
 246 715 193 682 193 625 c 256
 193 590 229 572 249 562 c 257
 239 530 l 257
EndSplineSet
EndChar

StartChar: tml_MatraI.alt8
Encoding: 58 -1 58
GlifName: tml_M_atraI_.alt8
Width: 542
VWidth: 0
GlyphClass: 4
Flags: W
AnchorPoint: "MatraI.alt8" 140 561 mark 0
LayerCount: 2
Back
Fore
SplineSet
128 530 m 257
 107 537 40 555 40 621 c 256
 40 704 123 757 225 757 c 256
 371 757 502 679 502 493 c 258
 502 0 l 257
 460 0 l 257
 459 480 l 258
 459 675 331 715 225 715 c 256
 135 715 82 680 82 623 c 256
 82 584 120 571 140 561 c 257
 128 530 l 257
EndSplineSet
EndChar

StartChar: tml_MatraI.stylalt1
Encoding: 59 -1 59
GlifName: tml_M_atraI_.stylalt1
Width: 600
VWidth: 0
GlyphClass: 4
Flags: W
AnchorPoint: "MatraI.stylalt1" 175 304 mark 0
LayerCount: 2
Back
Fore
SplineSet
149 268 m 257
 104 295 33 345 33 481 c 256
 33 670 173 800 411 800 c 256
 658 800 797 642 797 359 c 257
 797 0 l 257
 755 0 l 257
 755 357 l 257
 755 644 598 760 411 758 c 256
 217 756 75 663 75 481 c 256
 75 373 131 328 175 304 c 257
 149 268 l 257
EndSplineSet
EndChar

StartChar: tml_MatraIi
Encoding: 60 3008 60
GlifName: tml_M_atraI_i
Width: 399
VWidth: 0
GlyphClass: 4
Flags: W
AnchorPoint: "MatraIi" 145 560 mark 0
LayerCount: 2
Back
Fore
SplineSet
135 525 m 257
 105 525 26 554 26 695 c 256
 26 832 127 903 248 902 c 256
 360 901 389 813 389 738 c 256
 389 629 326 590 272 590 c 256
 204 590 148 639 148 738 c 256
 148 847 212 883 246 893 c 257
 267 863 l 257
 212 863 190 794 190 738 c 256
 190 666 227 632 272 632 c 256
 317 632 347 678 347 738 c 256
 347 806 320 863 267 863 c 256
 118 863 68 778 68 692 c 256
 68 590 120 560 145 560 c 257
 135 525 l 257
EndSplineSet
EndChar

StartChar: tml_MatraIi.alt1
Encoding: 61 -1 61
GlifName: tml_M_atraI_i.alt1
Width: 600
VWidth: 0
GlyphClass: 4
Flags: W
AnchorPoint: "MatraIi.alt1" 158 556 mark 0
LayerCount: 2
Back
Fore
SplineSet
26 695 m 256
 26 832 127 903 248 902 c 256
 360 901 389 813 389 738 c 256
 389 629 326 590 272 590 c 256
 204 590 148 639 148 738 c 256
 148 847 212 883 246 893 c 257
 267 863 l 257
 212 863 190 794 190 738 c 256
 190 666 227 632 272 632 c 256
 317 632 347 678 347 738 c 256
 347 806 320 863 267 863 c 256
 118 863 68 778 68 692 c 256
 68 590 140 566 158 556 c 257
 147 522 l 257
 118 534 26 560 26 695 c 256
  PathStart: -2
EndSplineSet
EndChar

StartChar: tml_MatraIi.alt2
Encoding: 62 -1 62
GlifName: tml_M_atraI_i.alt2
Width: 600
VWidth: 0
GlyphClass: 4
Flags: W
AnchorPoint: "MatraIi.alt2" 179 584 mark 0
LayerCount: 2
Back
Fore
SplineSet
19 682 m 256
 19 829 137 903 258 902 c 256
 370 901 399 813 399 738 c 256
 399 629 336 590 282 590 c 256
 214 590 158 639 158 738 c 256
 158 847 222 883 256 893 c 257
 277 863 l 257
 222 863 200 794 200 738 c 256
 200 666 237 632 282 632 c 256
 327 632 357 678 357 738 c 256
 357 806 330 863 277 863 c 256
 128 863 61 785 61 679 c 256
 61 572 142 552 179 584 c 257
 175 537 l 257
 145 520 19 520 19 682 c 256
  PathStart: -2
EndSplineSet
EndChar

StartChar: tml_MatraIi.alt3
Encoding: 63 -1 63
GlifName: tml_M_atraI_i.alt3
Width: 443
VWidth: 0
GlyphClass: 4
Flags: W
AnchorPoint: "MatraIi.alt3" 193 543 mark 0
LayerCount: 2
Back
Fore
SplineSet
40 695 m 256
 40 832 141 903 262 902 c 256
 374 901 403 813 403 738 c 256
 403 629 340 590 286 590 c 256
 218 590 162 639 162 738 c 256
 162 847 226 883 260 893 c 257
 281 863 l 257
 226 863 204 794 204 738 c 256
 204 666 241 632 286 632 c 256
 331 632 361 678 361 738 c 256
 361 806 334 863 281 863 c 256
 132 863 82 778 82 692 c 256
 82 581 175 551 193 543 c 257
 161 522 l 257
 132 534 40 560 40 695 c 256
  PathStart: -2
EndSplineSet
EndChar

StartChar: tml_MatraIi.stylalt1
Encoding: 64 -1 64
GlifName: tml_M_atraI_i.stylalt1
Width: 600
VWidth: 0
GlyphClass: 4
Flags: W
AnchorPoint: "MatraIi.stylalt1" 175 304 mark 0
LayerCount: 2
Back
Fore
SplineSet
149 268 m 257
 104 295 33 415 33 551 c 256
 33 740 165 954 403 954 c 257
 593 954 708 862 708 734 c 256
 708 654 657 601 581 601 c 256
 506 601 453 658 453 729 c 256
 453 808 507 863 579 863 c 256
 640 863 694 792 694 727 c 257
 666 727 l 257
 667 787 634 821 579 821 c 256
 532 821 495 785 495 729 c 256
 495 681 533 643 581 643 c 256
 634 643 667 681 666 727 c 256
 664 811 654 814 632 837 c 256
 600 870 525 914 403 912 c 257
 209 910 75 733 75 551 c 256
 75 443 131 328 175 304 c 257
 149 268 l 257
EndSplineSet
EndChar

StartChar: tml_MatraU
Encoding: 67 3009 67
GlifName: tml_M_atraU_
Width: 600
VWidth: 0
GlyphClass: 2
Flags: W
AnchorPoint: "MatraU" -161 560 mark 0
LayerCount: 2
Back
Fore
SplineSet
211 211 m 256
 127 211 73 282 73 373 c 256
 73 500 139 547 195 547 c 257
 207 518 l 257
 147 518 115 456 115 378 c 256
 115 302 154 253 207 253 c 256
 272 253 306 312 306 385 c 256
 306 458 280 518 205 518 c 258
 -161 518 l 257
 -161 560 l 257
 187 560 l 258
 278 560 348 515 348 385 c 256
 348 272 290 211 211 211 c 256
EndSplineSet
EndChar

StartChar: tml_MatraU.alt1
Encoding: 68 -1 68
GlifName: tml_M_atraU_.alt1
Width: 600
VWidth: 0
GlyphClass: 2
Flags: W
AnchorPoint: "MatraU.alt1" 529 33 mark 0
LayerCount: 2
Back
Fore
SplineSet
529 -153 m 257
 529 33 l 257
 571 33 l 257
 571 -153 l 257
 529 -153 l 257
EndSplineSet
EndChar

StartChar: tml_MatraUu
Encoding: 69 3010 69
GlifName: tml_M_atraU_u
Width: 550
VWidth: 0
GlyphClass: 2
Flags: W
AnchorPoint: "MatraUu" -166 560 mark 0
LayerCount: 2
Back
Fore
SplineSet
451 196 m 257
 412 212 l 257
 422 227 468 297 468 404 c 256
 468 519 406 603 287 603 c 256
 170 603 91 519 91 397 c 256
 91 310 141 260 197 260 c 256
 253 260 286 307 286 385 c 256
 286 490 200 518 118 518 c 258
 -166 518 l 257
 -166 560 l 257
 123 560 l 258
 131 560 140 560 148 559 c 256
 252 553 329 502 329 375 c 256
 329 276 276 218 194 218 c 256
 105 218 49 293 49 397 c 256
 49 538 144 645 287 645 c 256
 445 645 510 523 510 414 c 256
 510 276 451 196 451 196 c 257
EndSplineSet
EndChar

StartChar: tml_Month
Encoding: 70 3060 70
GlifName: tml_M_onth
Width: 1051
VWidth: 0
GlyphClass: 2
Flags: W
LayerCount: 2
Back
Fore
SplineSet
560 800 m 256
 694 800 750 724 750 640 c 256
 750 567 700 532 642 532 c 256
 583 532 534 567 534 640 c 256
 534 730 604 800 723 800 c 256
 823 800 944 724 889 599 c 257
 1021 599 l 257
 1021 557 l 257
 843 557 l 257
 843 589 l 257
 902 679 827 758 723 758 c 256
 612 758 576 692 576 640 c 256
 576 601 603 574 642 574 c 256
 678 574 708 601 708 640 c 256
 708 689 670 758 560 758 c 256
 430 758 375 660 428 548 c 257
 388 536 l 257
 322 679 406 800 560 800 c 256
  PathStart: -2
EndSplineSet
Refer: 43 2990 N 1 0 0 1 0 0 2
EndChar

StartChar: tml_NU
Encoding: 71 -1 71
GlifName: tml_N_U_
Width: 1049
VWidth: 0
GlyphClass: 2
Flags: W
LayerCount: 2
Back
Fore
SplineSet
411 -342 m 256
 138 -342 45 -268 45 -185 c 256
 45 -118 99 -106 158 -106 c 258
 977 -106 l 257
 977 573 l 257
 1019 573 l 257
 1019 -148 l 257
 155 -148 l 258
 98 -148 87 -165 87 -185 c 256
 87 -238 167 -300 411 -300 c 256
 724 -300 846 -40 846 197 c 256
 846 346 799 531 633 531 c 256
 465 531 383 388 383 214 c 256
 383 115 414 19 493 19 c 256
 571 19 599 115 599 214 c 256
 599 455 449 531 326 531 c 256
 177 531 71 407 71 238 c 256
 71 151 89 22 173 22 c 256
 231 22 264 84 264 172 c 256
 264 265 227 314 174 314 c 256
 108 314 71 236 78 148 c 257
 44 168 l 257
 45 290 107 354 177 354 c 256
 244 354 299 291 299 171 c 256
 299 59 252 -20 171 -20 c 256
 78 -20 30 86 30 237 c 256
 30 434 152 572 326 572 c 256
 481 572 641 474 641 218 c 256
 641 77 598 -23 493 -23 c 256
 391 -23 341 75 341 214 c 256
 341 425 429 571 633 572 c 256
 840 573 888 354 888 195 c 256
 888 -68 753 -342 411 -342 c 256
EndSplineSet
EndChar

StartChar: tml_NUu
Encoding: 72 -1 72
GlifName: tml_N_U_u
Width: 1371
VWidth: 0
GlyphClass: 2
Flags: W
LayerCount: 2
Back
Fore
SplineSet
1341 573 m 257
 1341 531 l 257
 1241 531 l 257
 1241 -13 l 257
 1199 -13 l 257
 1199 531 l 257
 1019 531 l 257
 1019 573 l 257
 1341 573 l 257
EndSplineSet
Refer: 71 -1 N 1 0 0 1 0 0 2
EndChar

StartChar: tml_Na
Encoding: 73 2984 73
GlifName: tml_N_a
Width: 586
VWidth: 0
GlyphClass: 2
Flags: W
AnchorPoint: "virama" 291 0 basechar 0
AnchorPoint: "MatraI.alt1" 396 560 basechar 0
LayerCount: 2
Back
Fore
SplineSet
30 1 m 257
 30 560 l 257
 446 560 l 257
 446 518 l 257
 310 518 l 257
 310 1 l 257
 268 1 l 257
 268 518 l 257
 72 518 l 257
 72 1 l 257
 30 1 l 257
159 -96 m 258
 266 -96 l 258
 461 -94 514 -5 514 123 c 256
 514 237 490 311 405 311 c 256
 353 311 310 264 310 188 c 257
 274 210 l 257
 276 275 321 352 410 351 c 256
 532 350 556 233 556 118 c 256
 556 -64 451 -135 272 -137 c 258
 164 -138 l 258
 82 -139 76 -197 75 -236 c 257
 33 -236 l 257
 34 -129 93 -96 159 -96 c 258
  PathStart: -2
EndSplineSet
EndChar

StartChar: tml_NgUu
Encoding: 74 -1 74
GlifName: tml_N_gU_u
Width: 681
VWidth: 0
GlyphClass: 2
Flags: W
LayerCount: 2
Back
Fore
SplineSet
629 -136 m 257
 629 32 l 257
 671 33 l 257
 671 -136 l 257
 629 -136 l 257
209 -178 m 256
 209 -246 333 -300 487 -300 c 256
 651 -300 791 -209 791 -93 c 256
 791 -22 754 13 712 13 c 256
 673 13 671 -30 671 -47 c 257
 632 -34 l 257
 632 7 659 54 716 54 c 256
 782 54 833 -4 833 -93 c 256
 833 -228 672 -342 487 -342 c 256
 329 -342 167 -280 167 -178 c 256
 167 -110 221 -89 274 -89 c 257
 439 -89 l 257
 439 -131 l 257
 274 -131 l 257
 228 -131 209 -146 209 -178 c 256
  PathStart: -2
EndSplineSet
Refer: 75 2969 N 1 0 0 1 0 0 2
PickledDataWithLists: "(dp1
S'com.typemytype.robofont.layerData'
p2
(dp3
S'Light Jan 19 16, 18:52'
p4
(dp5
S'name'
p6
S'tml_NgUu'
p7
sS'lib'
p8
(dp9
sS'unicodes'
p10
(lp11
sS'width'
p12
I681
sS'contours'
p13
(lp14
(dp15
S'points'
p16
(lp17
(dp18
S'segmentType'
p19
S'line'
p20
sS'x'
I629
sS'smooth'
p21
I00
sS'y'
I-153
sa(dp22
g19
S'line'
p23
sS'x'
I629
sg21
I00
sS'y'
I32
sa(dp24
g19
S'line'
p25
sS'x'
I671
sg21
I00
sS'y'
I33
sa(dp26
g19
S'line'
p27
sS'x'
I671
sg21
I00
sS'y'
I-153
sasa(dp28
g16
(lp29
(dp30
S'y'
I-151
sS'x'
I246
sg21
I00
sa(dp31
S'y'
I-158
sS'x'
I230
sg21
I00
sa(dp32
g19
S'curve'
p33
sS'x'
I230
sg21
I01
sS'y'
I-176
sa(dp34
S'y'
I-212
sS'x'
I230
sg21
I00
sa(dp35
S'y'
I-251
sS'x'
I320
sg21
I00
sa(dp36
g19
S'curve'
p37
sS'x'
I466
sg21
I01
sS'y'
I-252
sa(dp38
S'y'
I-253
sS'x'
I603
sg21
I00
sa(dp39
S'y'
I-198
sS'x'
I744
sg21
I00
sa(dp40
g19
S'curve'
p41
sS'x'
I744
sg21
I01
sS'y'
I-95
sa(dp42
S'y'
I-44
sS'x'
I744
sg21
I00
sa(dp43
S'y'
I-22
sS'x'
I717
sg21
I00
sa(dp44
g19
S'curve'
p45
sS'x'
I695
sg21
I01
sS'y'
I-22
sa(dp46
S'y'
I-22
sS'x'
I682
sg21
I00
sa(dp47
S'y'
I-30
sS'x'
I671
sg21
I00
sa(dp48
g19
S'curve'
p49
sS'x'
I671
sg21
I00
sS'y'
I-47
sa(dp50
g19
S'line'
p51
sS'x'
I615
sg21
I00
sS'y'
I5
sa(dp52
S'y'
I43
sS'x'
I643
sg21
I00
sa(dp53
S'y'
I59
sS'x'
I675
sg21
I00
sa(dp54
g19
S'curve'
p55
sS'x'
I706
sg21
I01
sS'y'
I58
sa(dp56
S'y'
I58
sS'x'
I773
sg21
I00
sa(dp57
S'y'
I9
sS'x'
I842
sg21
I00
sa(dp58
g19
S'curve'
p59
sS'x'
I842
sg21
I01
sS'y'
I-98
sa(dp60
S'y'
I-246
sS'x'
I842
sg21
I00
sa(dp61
S'y'
I-350
sS'x'
I676
sg21
I00
sa(dp62
g19
S'curve'
p63
sS'x'
I466
sg21
I01
sS'y'
I-350
sa(dp64
S'y'
I-350
sS'x'
I269
sg21
I00
sa(dp65
S'y'
I-271
sS'x'
I122
sg21
I00
sa(dp66
g19
S'curve'
p67
sS'x'
I122
sg21
I01
sS'y'
I-176
sa(dp68
S'y'
I-112
sS'x'
I122
sg21
I00
sa(dp69
S'y'
I-59
sS'x'
I171
sg21
I00
sa(dp70
g19
S'curve'
p71
sS'x'
I272
sg21
I00
sS'y'
I-59
sa(dp72
g19
S'line'
p73
sS'x'
I439
sg21
I00
sS'y'
I-59
sa(dp74
g19
S'line'
p75
sS'x'
I439
sg21
I00
sS'y'
I-151
sa(dp76
g19
S'line'
p77
sS'x'
I272
sg21
I00
sS'y'
I-151
sasasS'components'
p78
(lp79
(dp80
S'transformation'
p81
(lp82
I1
aI0
aI0
aI1
aI0
aI0
asS'baseGlyph'
p83
S'tml_Nga'
p84
sasS'anchors'
p85
(lp86
sss."
EndChar

StartChar: tml_Nga
Encoding: 75 2969 75
GlifName: tml_N_ga
Width: 681
VWidth: 0
GlyphClass: 2
Flags: W
AnchorPoint: "MatraIi" 640 560 basechar 0
AnchorPoint: "virama" 350 0 basechar 0
AnchorPoint: "MatraU.alt1" 629 33 basechar 0
AnchorPoint: "MatraI.alt4" 634 560 basechar 0
LayerCount: 2
Back
Fore
SplineSet
30 0 m 257
 30 560 l 257
 386 560 l 257
 386 518 l 257
 274 518 l 257
 274 164 l 257
 232 164 l 257
 232 518 l 257
 72 518 l 257
 72 0 l 257
 30 0 l 257
232 42 m 257
 648 42 l 257
 648 0 l 257
 232 0 l 257
 232 42 l 257
243 42 m 257
 400 42 461 144 461 247 c 256
 461 318 429 366 362 366 c 256
 303 366 274 319 274 274 c 257
 238 275 l 257
 238 348 293 408 371 408 c 256
 448 408 503 349 503 249 c 256
 503 118 428 6 243 6 c 257
 243 42 l 257
629 560 m 257
 671 560 l 257
 671 0 l 257
 629 0 l 257
 629 560 l 257
EndSplineSet
EndChar

StartChar: tml_Nine
Encoding: 76 3055 76
GlifName: tml_N_ine
Width: 552
VWidth: 0
GlyphClass: 2
Flags: W
LayerCount: 2
Back
Fore
SplineSet
489 341 m 257
 686 351 703 205 703 144 c 256
 703 50 649 -1 574 -1 c 256
 503 -1 451 53 451 142 c 256
 451 298 564 360 678 360 c 256
 798 360 885 280 885 165 c 256
 885 80 843 15 807 -14 c 257
 775 16 l 257
 808 51 843 94 843 165 c 256
 843 257 769 318 678 318 c 256
 554 318 493 242 493 146 c 256
 493 90 523 41 574 41 c 256
 635 41 661 98 661 144 c 256
 661 246 598 297 528 299 c 258
 430 299 l 257
 417 341 l 257
 489 341 l 257
EndSplineSet
Refer: 12 2970 N 1 0 0 1 0 0 2
EndChar

StartChar: tml_NnAa.alt
Encoding: 77 -1 77
GlifName: tml_N_nA_a.alt
Width: 1063
VWidth: 0
GlyphClass: 2
Flags: W
LayerCount: 2
Back
Fore
SplineSet
575 -265 m 257
 169 -264 30 -40 30 244 c 256
 30 418 97 532 126 570 c 257
 166 551 l 257
 125 504 72 379 72 244 c 256
 72 10 172 -224 581 -223 c 257
 847 -223 991 -88 991 69 c 256
 991 206 908 197 864 197 c 257
 864 239 l 257
 908 239 983 231 983 358 c 256
 983 465 914 531 793 531 c 256
 620 531 550 388 550 214 c 256
 550 115 581 19 660 19 c 256
 738 19 766 115 766 214 c 256
 766 455 611 531 488 531 c 257
 488 572 l 257
 643 572 808 470 808 214 c 256
 808 73 765 -23 660 -23 c 256
 558 -23 508 75 508 214 c 256
 508 425 600 572 792 573 c 256
 954 574 1025 472 1025 358 c 256
 1025 245 966 220 966 220 c 257
 966 220 1033 188 1033 69 c 256
 1033 -137 841 -265 575 -265 c 257
333 -20 m 256
 240 -20 192 86 192 237 c 256
 192 434 304 572 478 572 c 257
 478 531 l 257
 329 531 233 407 233 238 c 256
 233 151 251 22 335 22 c 256
 393 22 426 84 426 172 c 256
 426 265 389 314 336 314 c 256
 270 314 233 236 240 148 c 257
 206 168 l 257
 207 290 269 354 339 354 c 256
 406 354 466 291 466 171 c 256
 466 59 414 -20 333 -20 c 256
478 531 m 257
 478 572 l 257
 490 572 l 257
 490 531 l 257
 478 531 l 257
EndSplineSet
EndChar

StartChar: tml_NnU
Encoding: 78 -1 78
GlifName: tml_N_nU_
Width: 820
VWidth: 0
GlyphClass: 2
Flags: W
LayerCount: 2
Back
Fore
SplineSet
79 1 m 257
 79 560 l 257
 495 560 l 257
 495 518 l 257
 359 518 l 257
 359 1 l 257
 317 1 l 257
 317 518 l 257
 121 518 l 257
 121 1 l 257
 79 1 l 257
276 -342 m 256
 148 -342 22 -290 22 -192 c 256
 22 -128 75 -106 135 -106 c 258
 748 -106 l 257
 748 560 l 257
 790 560 l 257
 790 -148 l 257
 132 -148 l 258
 93 -148 64 -159 64 -192 c 256
 64 -253 160 -300 274 -300 c 256
 489 -300 563 -135 563 84 c 256
 563 208 539 311 457 311 c 256
 401 311 359 264 359 188 c 257
 323 210 l 257
 325 276 371 352 459 351 c 256
 562 349 605 242 605 79 c 256
 605 -144 525 -342 276 -342 c 256
EndSplineSet
EndChar

StartChar: tml_NnUu
Encoding: 79 -1 79
GlifName: tml_N_nU_u
Width: 1142
VWidth: 0
GlyphClass: 2
Flags: W
LayerCount: 2
Back
Fore
SplineSet
1112 560 m 257
 1112 518 l 257
 1012 518 l 257
 1012 -26 l 257
 970 -26 l 257
 970 518 l 257
 790 518 l 257
 790 560 l 257
 1112 560 l 257
EndSplineSet
Refer: 78 -1 N 1 0 0 1 0 0 2
EndChar

StartChar: tml_Nna
Encoding: 80 2979 80
GlifName: tml_N_na
Width: 1272
VWidth: 0
GlyphClass: 2
Flags: W
AnchorPoint: "MatraIi" 1206 561 basechar 0
AnchorPoint: "MatraAi.alt" 32 190 basechar 0
AnchorPoint: "virama" 695 0 basechar 0
AnchorPoint: "MatraI.alt2" 1196 561 basechar 0
LayerCount: 2
Back
Fore
SplineSet
171 -20 m 256
 78 -20 30 86 30 237 c 256
 30 434 152 572 326 572 c 256
 481 572 641 474 641 218 c 256
 641 77 598 -23 493 -23 c 256
 391 -23 341 75 341 214 c 256
 341 425 456 571 663 572 c 256
 818 572 983 474 983 218 c 256
 983 77 940 -23 835 -23 c 256
 733 -23 683 75 683 214 c 256
 683 425 795 560 987 561 c 258
 1242 561 l 257
 1242 519 l 257
 1124 519 l 257
 1124 1 l 257
 1082 1 l 257
 1082 519 l 257
 988 519 l 258
 815 519 725 388 725 214 c 256
 725 115 756 19 835 19 c 256
 913 19 941 115 941 214 c 256
 941 455 786 531 663 531 c 256
 475 531 383 388 383 214 c 256
 383 115 414 19 493 19 c 256
 571 19 599 115 599 214 c 256
 599 455 449 531 326 531 c 256
 177 531 71 407 71 238 c 256
 71 151 89 22 173 22 c 256
 231 22 264 84 264 172 c 256
 264 265 227 314 174 314 c 256
 108 314 71 236 78 148 c 257
 44 168 l 257
 45 290 107 354 177 354 c 256
 244 354 299 291 299 171 c 256
 299 59 252 -20 171 -20 c 256
EndSplineSet
EndChar

StartChar: tml_NnnAa.alt
Encoding: 81 -1 81
GlifName: tml_N_nnA_a.alt
Width: 1417
VWidth: 0
GlyphClass: 2
Flags: W
LayerCount: 2
Back
Fore
SplineSet
888 216 m 256
 888 114 919 19 998 19 c 256
 1076 19 1104 114 1104 216 c 256
 1104 455 951 531 820 531 c 256
 641 531 546 388 546 214 c 256
 546 115 577 19 656 19 c 256
 734 19 762 114 762 216 c 256
 762 453 612 531 490 531 c 256
 340 531 234 412 234 229 c 256
 234 154 252 22 336 22 c 256
 394 22 427 84 427 172 c 256
 427 265 390 314 337 314 c 256
 271 314 234 236 241 148 c 257
 207 168 l 257
 208 292 272 354 340 354 c 256
 407 354 462 292 462 171 c 256
 462 58 414 -20 335 -20 c 256
 241 -20 193 91 193 226 c 256
 193 441 315 572 492 572 c 256
 644 572 804 475 804 214 c 256
 804 79 761 -23 656 -23 c 256
 554 -23 504 75 504 213 c 256
 504 425 622 572 821 572 c 256
 981 572 1146 478 1146 214 c 256
 1146 79 1103 -23 998 -23 c 256
 896 -23 846 74 846 216 c 256
 846 424 954 572 1146 573 c 257
 1303 574 1379 478 1379 356 c 256
 1379 249 1320 220 1320 220 c 257
 1320 220 1387 185 1387 73 c 256
 1387 -120 1189 -265 742 -265 c 256
 267 -265 30 -101 30 240 c 256
 30 424 99 534 126 570 c 257
 166 551 l 257
 124 501 72 384 72 236 c 256
 72 -83 314 -223 741 -223 c 256
 1141 -223 1345 -100 1345 77 c 256
 1345 197 1251 197 1218 197 c 257
 1218 239 l 257
 1261 239 1337 242 1337 357 c 256
 1337 466 1268 531 1147 531 c 257
 974 531 888 387 888 216 c 256
  PathStart: -2
EndSplineSet
EndChar

StartChar: tml_NnnU
Encoding: 82 -1 82
GlifName: tml_N_nnU_
Width: 1391
VWidth: 0
GlyphClass: 2
Flags: W
LayerCount: 2
Back
Fore
SplineSet
725 214 m 256
 725 115 756 19 835 19 c 256
 913 19 941 115 941 214 c 256
 941 455 786 531 663 531 c 256
 475 531 383 388 383 214 c 256
 383 115 414 19 493 19 c 256
 571 19 599 115 599 214 c 256
 599 455 449 531 326 531 c 256
 177 531 71 407 71 238 c 256
 71 151 89 22 173 22 c 256
 231 22 264 84 264 172 c 256
 264 265 227 314 174 314 c 256
 108 314 71 236 78 148 c 257
 44 168 l 257
 45 290 107 354 177 354 c 256
 244 354 299 291 299 171 c 256
 299 59 252 -20 171 -20 c 256
 78 -20 30 86 30 237 c 256
 30 434 152 572 326 572 c 256
 481 572 641 474 641 218 c 256
 641 77 598 -23 493 -23 c 256
 391 -23 341 75 341 214 c 256
 341 425 456 571 663 572 c 256
 818 572 983 474 983 218 c 256
 983 77 940 -23 835 -23 c 256
 733 -23 683 75 683 214 c 256
 683 425 795 572 977 573 c 256
 1159 574 1230 401 1230 215 c 256
 1230 -20 1067 -342 574 -342 c 256
 226 -342 68 -268 68 -185 c 256
 68 -106 156 -106 231 -106 c 258
 1319 -106 l 257
 1319 573 l 257
 1361 573 l 257
 1361 -148 l 257
 178 -148 l 258
 121 -148 110 -170 110 -185 c 256
 110 -238 274 -300 574 -300 c 256
 1027 -300 1188 10 1188 217 c 256
 1188 420 1104 531 978 531 c 256
 815 531 725 388 725 214 c 256
  PathStart: -2
EndSplineSet
EndChar

StartChar: tml_NnnUu
Encoding: 83 -1 83
GlifName: tml_N_nnU_u
Width: 1713
VWidth: 0
GlyphClass: 2
Flags: W
LayerCount: 2
Back
Fore
SplineSet
1683 573 m 257
 1683 531 l 257
 1583 531 l 257
 1583 -13 l 257
 1541 -13 l 257
 1541 531 l 257
 1361 531 l 257
 1361 573 l 257
 1683 573 l 257
EndSplineSet
Refer: 82 -1 N 1 0 0 1 0 0 2
EndChar

StartChar: tml_Nnna
Encoding: 84 2985 84
GlifName: tml_N_nna
Width: 919
VWidth: 0
GlyphClass: 2
Flags: W
AnchorPoint: "MatraIi" 862 561 basechar 0
AnchorPoint: "MatraAi.alt" 33 190 basechar 0
AnchorPoint: "MatraIi.alt2" 589 584 basechar 0
AnchorPoint: "virama" 495 0 basechar 0
AnchorPoint: "MatraI.alt5" 572 573 basechar 0
AnchorPoint: "MatraI.alt2" 852 561 basechar 0
LayerCount: 2
Back
Fore
SplineSet
326 531 m 257
 326 572 l 257
 481 572 646 470 646 214 c 256
 646 73 603 -23 498 -23 c 256
 396 -23 346 75 346 214 c 256
 346 425 444 560 636 561 c 258
 905 561 l 257
 905 519 l 257
 787 519 l 257
 787 1 l 257
 745 1 l 257
 745 519 l 257
 637 519 l 258
 464 519 388 388 388 214 c 256
 388 115 419 19 498 19 c 256
 576 19 604 115 604 214 c 256
 604 455 449 531 326 531 c 257
  PathStart: -2
171 -20 m 256
 78 -20 30 86 30 237 c 256
 30 434 142 572 316 572 c 257
 316 531 l 257
 167 531 71 407 71 238 c 256
 71 151 89 22 173 22 c 256
 231 22 264 84 264 172 c 256
 264 265 227 314 174 314 c 256
 108 314 71 236 78 148 c 257
 44 168 l 257
 45 290 107 354 177 354 c 256
 244 354 304 291 304 171 c 256
 304 59 252 -20 171 -20 c 256
316 531 m 257
 316 572 l 257
 328 572 l 257
 328 531 l 257
 316 531 l 257
EndSplineSet
EndChar

StartChar: tml_Number
Encoding: 85 3066 85
GlifName: tml_N_umber
Width: 1020
VWidth: 0
GlyphClass: 2
Flags: W
LayerCount: 2
Back
Fore
SplineSet
327 537 m 257
 291 627 336 755 480 755 c 256
 647 755 789 603 789 368 c 256
 789 281 755 204 666 204 c 256
 584 204 537 274 537 376 c 256
 537 502 622 574 728 574 c 256
 842 574 949 493 950 305 c 256
 951 178 887 84 845 42 c 257
 997 42 l 257
 997 0 l 257
 777 0 l 257
 776 32 l 257
 835 86 908 178 908 305 c 256
 908 433 845 532 728 532 c 256
 636 532 579 452 579 376 c 256
 579 310 603 246 667 246 c 256
 732 246 747 310 747 368 c 256
 747 583 621 716 486 715 c 256
 369 714 336 621 370 537 c 257
 327 537 l 257
30 0 m 257
 30 560 l 257
 386 560 l 257
 386 518 l 257
 274 518 l 257
 274 0 l 257
 232 0 l 257
 232 518 l 257
 72 518 l 257
 72 0 l 257
 30 0 l 257
343 42 m 257
 400 42 461 114 461 227 c 256
 461 308 429 366 362 366 c 256
 303 366 274 319 274 274 c 257
 238 275 l 257
 238 348 293 408 371 408 c 256
 448 408 503 339 503 229 c 256
 503 98 439 0 343 0 c 257
 343 42 l 257
EndSplineSet
PickledDataWithLists: "(dp1
S'com.typemytype.robofont.guides'
p2
(lp3
(dp4
S'y'
I755
sS'x'
I1578
sS'angle'
p5
I0
sS'isGlobal'
p6
I00
sas."
EndChar

StartChar: tml_NyU
Encoding: 86 -1 86
GlifName: tml_N_yU_
Width: 863
VWidth: 0
GlyphClass: 2
Flags: W
LayerCount: 2
Back
Fore
SplineSet
316 -342 m 256
 168 -342 22 -290 22 -192 c 256
 22 -128 75 -106 135 -106 c 258
 791 -106 l 257
 791 560 l 257
 833 560 l 257
 833 -148 l 257
 132 -148 l 258
 93 -148 64 -159 64 -192 c 256
 64 -253 170 -300 314 -300 c 256
 529 -300 663 -177 663 107 c 256
 663 252 600 299 549 299 c 256
 492 299 469 243 469 204 c 257
 445 222 l 257
 445 293 494 339 551 339 c 256
 652 339 705 235 705 107 c 256
 705 -187 565 -342 316 -342 c 256
EndSplineSet
Refer: 16 2958 N 1 0 0 1 0 0 2
EndChar

StartChar: tml_NyUu
Encoding: 87 -1 87
GlifName: tml_N_yU_u
Width: 1185
VWidth: 0
GlyphClass: 2
Flags: W
LayerCount: 2
Back
Fore
SplineSet
1155 560 m 257
 1155 518 l 257
 1055 518 l 257
 1055 -13 l 257
 1013 -13 l 257
 1013 518 l 257
 833 518 l 257
 833 560 l 257
 1155 560 l 257
EndSplineSet
Refer: 86 -1 N 1 0 0 1 0 0 2
EndChar

StartChar: tml_Nya
Encoding: 88 2974 88
GlifName: tml_N_ya
Width: 882
VWidth: 0
GlyphClass: 2
Flags: W
AnchorPoint: "MatraIi" 709 560 basechar 0
AnchorPoint: "MatraI.alt1" 709 560 basechar 0
AnchorPoint: "virama" 520 0 basechar 0
LayerCount: 2
Back
Fore
SplineSet
338 -24 m 256
 245 -24 197 82 197 233 c 256
 197 430 288 560 432 560 c 257
 434 519 l 257
 315 519 238 403 238 234 c 256
 238 147 256 18 340 18 c 256
 398 18 431 80 431 168 c 256
 431 261 394 310 341 310 c 256
 275 310 238 232 245 144 c 257
 211 164 l 257
 212 286 274 350 344 350 c 256
 411 350 471 287 471 167 c 256
 471 55 419 -24 338 -24 c 256
474 -275 m 256
 196 -274 30 -68 30 227 c 256
 30 368 68 487 126 572 c 257
 163 550 l 257
 107 467 74 370 74 227 c 256
 74 -27 214 -231 475 -231 c 256
 747 -231 810 -24 810 124 c 256
 810 263 762 316 697 316 c 256
 619 316 607 247 608 212 c 257
 581 223 l 257
 581 292 620 356 701 356 c 256
 795 356 852 270 852 121 c 256
 852 -67 763 -276 474 -275 c 256
  PathStart: -2
431 519 m 257
 429 560 l 257
 744 560 l 257
 744 519 l 257
 608 519 l 257
 608 1 l 257
 566 1 l 257
 566 519 l 257
 431 519 l 257
EndSplineSet
EndChar

StartChar: tml_O
Encoding: 89 2962 89
GlifName: tml_O_
Width: 663
VWidth: 0
GlyphClass: 2
Flags: W
LayerCount: 2
Back
Fore
SplineSet
491 152 m 256
 401 152 367 230 367 299 c 257
 409 299 l 257
 409 269 419 194 491 194 c 256
 563 194 601 256 601 345 c 256
 601 495 468 568 354 568 c 256
 181 568 83 443 83 290 c 256
 83 236 113 188 172 188 c 256
 224 188 261 231 261 285 c 256
 261 336 231 380 176 380 c 256
 115 380 83 341 83 290 c 257
 51 293 l 257
 51 366 99 422 179 422 c 256
 249 422 303 364 303 285 c 256
 303 204 246 146 176 146 c 256
 87 146 41 211 41 307 c 256
 41 483 158 610 354 610 c 256
 517 610 643 501 643 340 c 256
 643 226 578 152 491 152 c 256
  PathStart: -1
332 -164 m 256
 225 -164 148 -85 148 23 c 257
 190 23 l 257
 190 -40 232 -122 332 -122 c 256
 422 -122 479 -58 479 42 c 257
 488 33 l 257
 414 33 367 83 367 170 c 258
 367 299 l 257
 407 299 l 257
 408 169 l 258
 408 108 431 73 486 73 c 258
 607 73 l 257
 607 31 l 257
 501 31 l 257
 520 36 l 257
 520 -78 448 -164 332 -164 c 256
  PathStart: -1
EndSplineSet
EndChar

StartChar: tml_Om
Encoding: 90 3024 90
GlifName: tml_O_m
Width: 600
VWidth: 0
GlyphClass: 2
Flags: W
LayerCount: 2
Back
Fore
SplineSet
176 146 m 256
 87 146 41 211 41 307 c 256
 41 483 158 610 354 610 c 256
 517 610 643 501 643 340 c 256
 643 226 578 152 491 152 c 256
 401 152 367 230 367 299 c 257
 409 299 l 257
 409 269 419 194 491 194 c 256
 563 194 601 256 601 345 c 256
 601 495 468 568 354 568 c 256
 181 568 83 443 83 290 c 256
 83 236 113 188 172 188 c 256
 224 188 261 231 261 285 c 256
 261 336 231 380 176 380 c 256
 115 380 83 341 83 290 c 257
 51 293 l 257
 51 366 99 422 179 422 c 256
 249 422 303 364 303 285 c 256
 303 204 246 146 176 146 c 256
332 -164 m 256
 225 -164 148 -85 148 23 c 257
 190 23 l 257
 190 -40 232 -122 332 -122 c 256
 422 -122 479 -58 479 42 c 257
 488 33 l 257
 414 33 367 83 367 170 c 258
 367 299 l 257
 407 299 l 257
 408 169 l 258
 408 108 431 73 486 73 c 258
 607 73 l 257
 607 31 l 257
 501 31 l 257
 520 36 l 257
 520 -78 448 -164 332 -164 c 256
  PathStart: -1
292 -70 m 257
 292 26 l 257
 315 26 l 257
 315 -49 l 257
 350 -49 l 257
 353 -70 l 257
 292 -70 l 257
332 -54 m 257
 332 5 l 258
 332 20 339 29 354 29 c 256
 381 29 394 5 394 -16 c 256
 394 -46 377 -70 353 -70 c 257
 349 -49 l 257
 367 -49 373 -30 373 -16 c 256
 373 -5 368 8 359 8 c 256
 354 8 353 3 353 -2 c 258
 353 -54 l 257
 332 -54 l 257
350 51 m 256
 350 60 343 67 335 67 c 256
 326 67 321 60 321 51 c 256
 321 43 326 37 335 37 c 256
 343 37 350 43 350 51 c 256
  PathStart: -2
EndSplineSet
EndChar

StartChar: tml_Oo
Encoding: 92 2963 92
GlifName: tml_O_o
Width: 600
VWidth: 0
GlyphClass: 2
Flags: W
LayerCount: 2
Back
Fore
SplineSet
176 146 m 256
 87 146 41 211 41 307 c 256
 41 483 158 610 354 610 c 256
 517 610 643 501 643 340 c 256
 643 226 578 152 491 152 c 256
 401 152 367 230 367 299 c 257
 409 299 l 257
 409 269 419 194 491 194 c 256
 563 194 601 256 601 345 c 256
 601 495 468 568 354 568 c 256
 181 568 83 443 83 290 c 256
 83 236 113 188 172 188 c 256
 224 188 261 231 261 285 c 256
 261 336 231 380 176 380 c 256
 115 380 83 341 83 290 c 257
 51 293 l 257
 51 366 99 422 179 422 c 256
 249 422 303 364 303 285 c 256
 303 204 246 146 176 146 c 256
330 -164 m 256
 231 -164 128 -108 128 0 c 256
 128 96 201 121 245 121 c 256
 299 121 359 91 359 7 c 256
 359 -69 312 -116 260 -135 c 257
 236 -107 l 257
 282 -86 318 -46 318 2 c 256
 318 50 288 79 245 79 c 256
 185 79 168 34 168 0 c 256
 168 -64 230 -122 330 -122 c 256
 420 -122 479 -58 479 42 c 257
 488 33 l 257
 414 33 367 83 367 170 c 258
 367 299 l 257
 407 299 l 257
 408 169 l 258
 408 108 431 73 486 73 c 258
 607 73 l 257
 607 31 l 257
 501 31 l 257
 520 36 l 257
 520 -78 446 -164 330 -164 c 256
EndSplineSet
EndChar

StartChar: tml_PUu
Encoding: 93 -1 93
GlifName: tml_P_U_u
Width: 661
VWidth: 0
GlyphClass: 2
Flags: W
LayerCount: 2
Back
Fore
SplineSet
437 -136 m 257
 437 32 l 257
 479 33 l 257
 479 -136 l 257
 437 -136 l 257
59 -180 m 256
 59 -241 168 -300 322 -300 c 256
 486 -300 599 -209 599 -93 c 256
 599 -22 562 13 520 13 c 256
 481 13 479 -30 479 -47 c 257
 440 -34 l 257
 440 7 467 54 524 54 c 256
 590 54 641 -4 641 -93 c 256
 641 -228 507 -342 322 -342 c 256
 164 -342 17 -282 17 -180 c 256
 17 -112 76 -89 129 -89 c 257
 247 -89 l 257
 247 -131 l 257
 132 -131 l 257
 86 -131 59 -146 59 -180 c 256
  PathStart: -2
EndSplineSet
Refer: 94 2986 N 1 0 0 1 0 0 2
PickledDataWithLists: "(dp1
S'com.typemytype.robofont.layerData'
p2
(dp3
S'Light Jan 19 16, 19:21'
p4
(dp5
S'name'
p6
S'tml_PUu'
p7
sS'lib'
p8
(dp9
sS'unicodes'
p10
(lp11
sS'width'
p12
I661
sS'contours'
p13
(lp14
(dp15
S'points'
p16
(lp17
(dp18
S'segmentType'
p19
S'line'
p20
sS'x'
I437
sS'smooth'
p21
I00
sS'y'
I-136
sa(dp22
g19
S'line'
p23
sS'x'
I437
sg21
I00
sS'y'
I32
sa(dp24
g19
S'line'
p25
sS'x'
I479
sg21
I00
sS'y'
I33
sa(dp26
g19
S'line'
p27
sS'x'
I479
sg21
I00
sS'y'
I-136
sasa(dp28
g16
(lp29
(dp30
S'y'
I-131
sS'x'
I86
sg21
I00
sa(dp31
S'y'
I-146
sS'x'
I67
sg21
I00
sa(dp32
g19
S'curve'
p33
sS'x'
I67
sg21
I01
sS'y'
I-178
sa(dp34
S'y'
I-246
sS'x'
I67
sg21
I00
sa(dp35
S'y'
I-300
sS'x'
I141
sg21
I00
sa(dp36
g19
S'curve'
p37
sS'x'
I295
sg21
I01
sS'y'
I-300
sa(dp38
S'y'
I-300
sS'x'
I459
sg21
I00
sa(dp39
S'y'
I-209
sS'x'
I599
sg21
I00
sa(dp40
g19
S'curve'
p41
sS'x'
I599
sg21
I01
sS'y'
I-93
sa(dp42
S'y'
I-22
sS'x'
I599
sg21
I00
sa(dp43
S'y'
I13
sS'x'
I562
sg21
I00
sa(dp44
g19
S'curve'
p45
sS'x'
I520
sg21
I01
sS'y'
I13
sa(dp46
S'y'
I13
sS'x'
I481
sg21
I00
sa(dp47
S'y'
I-30
sS'x'
I479
sg21
I00
sa(dp48
g19
S'curve'
p49
sS'x'
I479
sg21
I00
sS'y'
I-47
sa(dp50
g19
S'line'
p51
sS'x'
I440
sg21
I00
sS'y'
I-34
sa(dp52
S'y'
I7
sS'x'
I440
sg21
I00
sa(dp53
S'y'
I54
sS'x'
I467
sg21
I00
sa(dp54
g19
S'curve'
p55
sS'x'
I524
sg21
I01
sS'y'
I54
sa(dp56
S'y'
I54
sS'x'
I590
sg21
I00
sa(dp57
S'y'
I-4
sS'x'
I641
sg21
I00
sa(dp58
g19
S'curve'
p59
sS'x'
I641
sg21
I01
sS'y'
I-93
sa(dp60
S'y'
I-228
sS'x'
I641
sg21
I00
sa(dp61
S'y'
I-342
sS'x'
I480
sg21
I00
sa(dp62
g19
S'curve'
p63
sS'x'
I295
sg21
I01
sS'y'
I-342
sa(dp64
S'y'
I-342
sS'x'
I137
sg21
I00
sa(dp65
S'y'
I-280
sS'x'
I25
sg21
I00
sa(dp66
g19
S'curve'
p67
sS'x'
I25
sg21
I01
sS'y'
I-178
sa(dp68
S'y'
I-110
sS'x'
I25
sg21
I00
sa(dp69
S'y'
I-89
sS'x'
I79
sg21
I00
sa(dp70
g19
S'curve'
p71
sS'x'
I132
sg21
I00
sS'y'
I-89
sa(dp72
g19
S'line'
p73
sS'x'
I247
sg21
I00
sS'y'
I-89
sa(dp74
g19
S'line'
p75
sS'x'
I247
sg21
I00
sS'y'
I-131
sa(dp76
g19
S'line'
p77
sS'x'
I132
sg21
I00
sS'y'
I-131
sasa(dp78
g16
(lp79
(dp80
S'y'
I-151
sS'x'
I114
sg21
I00
sa(dp81
S'y'
I-158
sS'x'
I98
sg21
I00
sa(dp82
g19
S'curve'
p83
sS'x'
I98
sg21
I01
sS'y'
I-176
sa(dp84
S'y'
I-212
sS'x'
I98
sg21
I00
sa(dp85
S'y'
I-251
sS'x'
I178
sg21
I00
sa(dp86
g19
S'curve'
p87
sS'x'
I304
sg21
I01
sS'y'
I-252
sa(dp88
S'y'
I-253
sS'x'
I431
sg21
I00
sa(dp89
S'y'
I-198
sS'x'
I552
sg21
I00
sa(dp90
g19
S'curve'
p91
sS'x'
I552
sg21
I01
sS'y'
I-95
sa(dp92
S'y'
I-44
sS'x'
I552
sg21
I00
sa(dp93
S'y'
I-22
sS'x'
I525
sg21
I00
sa(dp94
g19
S'curve'
p95
sS'x'
I503
sg21
I01
sS'y'
I-22
sa(dp96
S'y'
I-22
sS'x'
I490
sg21
I00
sa(dp97
S'y'
I-30
sS'x'
I479
sg21
I00
sa(dp98
g19
S'curve'
p99
sS'x'
I479
sg21
I00
sS'y'
I-47
sa(dp100
g19
S'line'
p101
sS'x'
I423
sg21
I00
sS'y'
I5
sa(dp102
S'y'
I43
sS'x'
I451
sg21
I00
sa(dp103
S'y'
I59
sS'x'
I483
sg21
I00
sa(dp104
g19
S'curve'
p105
sS'x'
I514
sg21
I01
sS'y'
I58
sa(dp106
S'y'
I58
sS'x'
I581
sg21
I00
sa(dp107
S'y'
I9
sS'x'
I650
sg21
I00
sa(dp108
g19
S'curve'
p109
sS'x'
I650
sg21
I01
sS'y'
I-98
sa(dp110
S'y'
I-246
sS'x'
I650
sg21
I00
sa(dp111
S'y'
I-350
sS'x'
I514
sg21
I00
sa(dp112
g19
S'curve'
p113
sS'x'
I304
sg21
I01
sS'y'
I-350
sa(dp114
S'y'
I-350
sS'x'
I117
sg21
I00
sa(dp115
S'y'
I-271
sS'x'
I-10
sg21
I00
sa(dp116
g19
S'curve'
p117
sS'x'
I-10
sg21
I01
sS'y'
I-176
sa(dp118
S'y'
I-112
sS'x'
I-10
sg21
I00
sa(dp119
S'y'
I-59
sS'x'
I39
sg21
I00
sa(dp120
g19
S'curve'
p121
sS'x'
I140
sg21
I00
sS'y'
I-59
sa(dp122
g19
S'line'
p123
sS'x'
I247
sg21
I00
sS'y'
I-59
sa(dp124
g19
S'line'
p125
sS'x'
I247
sg21
I00
sS'y'
I-151
sa(dp126
g19
S'line'
p127
sS'x'
I140
sg21
I00
sS'y'
I-151
sasasS'components'
p128
(lp129
(dp130
S'transformation'
p131
(lp132
I1
aI0
aI0
aI1
aI0
aI0
asS'baseGlyph'
p133
S'tml_Pa'
p134
sasS'anchors'
p135
(lp136
sss."
EndChar

StartChar: tml_Pa
Encoding: 94 2986 94
GlifName: tml_P_a
Width: 510
VWidth: 0
GlyphClass: 2
Flags: W
AnchorPoint: "MatraIi" 456 560 basechar 0
AnchorPoint: "MatraI.alt3" 437 500 basechar 0
AnchorPoint: "virama" 258 0 basechar 0
AnchorPoint: "MatraU.alt1" 438 33 basechar 0
LayerCount: 2
Back
Fore
SplineSet
30 1 m 257
 30 560 l 257
 74 560 l 257
 74 41 l 257
 436 41 l 257
 436 560 l 257
 480 560 l 257
 480 1 l 257
 30 1 l 257
EndSplineSet
EndChar

StartChar: tml_RI.alt
Encoding: 95 -1 95
GlifName: tml_R_I_.alt
Width: 600
VWidth: 0
GlyphClass: 2
Flags: W
LayerCount: 2
Back
Fore
SplineSet
71 0 m 257
 71 560 l 257
 520 560 l 257
 520 518 l 257
 387 518 l 257
 384 0 l 257
 339 0 l 257
 342 518 l 257
 113 518 l 257
 113 0 l 257
 71 0 l 257
EndSplineSet
Refer: 52 -1 N 1 0 0 1 283 0 2
EndChar

StartChar: tml_RIi.alt
Encoding: 96 -1 96
GlifName: tml_R_I_i.alt
Width: 600
VWidth: 0
GlyphClass: 2
Flags: W
LayerCount: 2
Back
Fore
SplineSet
71 0 m 257
 71 560 l 257
 520 560 l 257
 520 518 l 257
 387 518 l 257
 384 0 l 257
 339 0 l 257
 342 518 l 257
 113 518 l 257
 113 0 l 257
 71 0 l 257
EndSplineSet
Refer: 60 3008 N 1 0 0 1 320 0 2
EndChar

StartChar: tml_RU
Encoding: 97 -1 97
GlifName: tml_R_U_
Width: 882
VWidth: 0
GlyphClass: 2
Flags: W
LayerCount: 2
Back
Fore
SplineSet
322 0 m 257
 322 560 l 257
 751 560 l 257
 751 518 l 257
 618 518 l 257
 615 0 l 257
 570 0 l 257
 573 518 l 257
 364 518 l 257
 364 0 l 257
 322 0 l 257
188 551 m 257
 135 474 92 360 92 224 c 256
 92 -53 236 -224 495 -223 c 256
 725 -222 810 -48 810 107 c 256
 810 252 747 299 696 299 c 256
 639 299 616 243 616 204 c 257
 592 222 l 257
 592 293 641 339 698 339 c 256
 799 339 852 235 852 107 c 256
 852 -66 763 -266 485 -265 c 256
 206 -264 50 -80 50 224 c 256
 50 340 88 478 152 574 c 257
 188 551 l 257
EndSplineSet
EndChar

StartChar: tml_RUu
Encoding: 98 -1 98
GlifName: tml_R_U_u
Width: 972
VWidth: 0
GlyphClass: 2
Flags: W
LayerCount: 2
Back
Fore
SplineSet
412 0 m 257
 412 560 l 257
 841 560 l 257
 841 518 l 257
 708 518 l 257
 705 0 l 257
 660 0 l 257
 663 518 l 257
 454 518 l 257
 454 0 l 257
 412 0 l 257
525 -265 m 256
 246 -264 30 -103 30 201 c 256
 30 344 72 573 227 573 c 256
 318 573 355 492 355 428 c 256
 355 362 316 287 233 287 c 256
 154 287 113 356 113 415 c 256
 113 468 140 555 227 555 c 257
 230 531 l 257
 189 531 150 499 150 425 c 256
 150 379 181 329 232 329 c 256
 279 329 313 371 313 424 c 256
 313 497 281 531 230 531 c 256
 117 531 72 338 72 196 c 256
 72 -81 276 -224 535 -223 c 256
 765 -222 900 -48 900 107 c 256
 900 252 837 299 786 299 c 256
 729 299 706 243 706 204 c 257
 682 222 l 257
 682 293 731 339 788 339 c 256
 889 339 942 235 942 107 c 256
 942 -66 803 -266 525 -265 c 256
EndSplineSet
EndChar

StartChar: tml_Ra
Encoding: 99 2992 99
GlifName: tml_R_a
Width: 469
VWidth: 0
GlyphClass: 2
Flags: W
AnchorPoint: "MatraIi" 399 560 basechar 0
AnchorPoint: "MatraI.alt2" 399 560 basechar 0
AnchorPoint: "virama" 220 0 basechar 0
LayerCount: 2
Back
Fore
SplineSet
30 0 m 257
 30 560 l 257
 459 560 l 257
 459 518 l 257
 326 518 l 257
 323 0 l 257
 278 0 l 257
 281 518 l 257
 72 518 l 257
 72 0 l 257
 30 0 l 257
33 -212 m 257
 278 17 l 257
 323 0 l 257
 61 -241 l 257
 33 -212 l 257
EndSplineSet
EndChar

StartChar: tml_Ra.alt
Encoding: 100 -1 100
GlifName: tml_R_a.alt
Width: 529
VWidth: 0
Flags: W
LayerCount: 2
Back
Fore
SplineSet
40 0 m 257
 40 560 l 257
 489 560 l 257
 489 518 l 257
 356 518 l 257
 353 0 l 257
 308 0 l 257
 311 518 l 257
 82 518 l 257
 82 0 l 257
 40 0 l 257
EndSplineSet
EndChar

StartChar: tml_RrAa.alt
Encoding: 101 -1 101
GlifName: tml_R_rA_a.alt
Width: 855
VWidth: 0
GlyphClass: 2
Flags: W
LayerCount: 2
Back
Fore
SplineSet
539 426 m 257
 503 390 l 257
 503 493 467 531 395 531 c 256
 325 531 282 483 282 393 c 258
 282 0 l 257
 240 0 l 257
 240 404 l 258
 240 502 296 575 401 574 c 256
 477 573 536 524 539 426 c 257
  PathStart: -2
503 0 m 257
 503 460 l 257
 547 460 l 257
 545 0 l 257
 503 0 l 257
817 358 m 256
 817 245 758 220 758 220 c 257
 758 220 825 188 825 69 c 256
 825 -137 700 -270 457 -270 c 256
 223 -270 30 -127 30 187 c 256
 30 401 119 532 148 570 c 257
 188 551 l 257
 147 504 72 372 72 187 c 256
 72 -87 234 -228 463 -228 c 256
 680 -228 783 -88 783 69 c 256
 783 206 700 197 656 197 c 257
 656 239 l 257
 700 239 775 231 775 358 c 256
 775 465 735 531 645 531 c 256
 560 531 547 451 547 388 c 257
 509 426 l 257
 509 456 524 573 644 573 c 256
 765 574 817 472 817 358 c 256
  PathStart: -2
EndSplineSet
EndChar

StartChar: tml_RrU
Encoding: 102 -1 102
GlifName: tml_R_rU_
Width: 810
VWidth: 0
GlyphClass: 2
Flags: W
LayerCount: 2
Back
Fore
SplineSet
329 426 m 257
 293 390 l 257
 293 493 257 531 185 531 c 256
 115 531 72 483 72 393 c 258
 72 0 l 257
 30 0 l 257
 30 404 l 258
 30 502 86 575 191 574 c 256
 267 573 326 524 329 426 c 257
  PathStart: -2
293 0 m 257
 293 460 l 257
 337 460 l 257
 335 0 l 257
 293 0 l 257
22 -192 m 256
 22 -128 75 -106 135 -106 c 258
 738 -106 l 257
 738 560 l 257
 780 560 l 257
 780 -148 l 257
 132 -148 l 258
 93 -148 64 -159 64 -192 c 256
 64 -253 150 -300 294 -300 c 256
 577 -300 587 19 587 212 c 256
 587 405 564 534 450 534 c 256
 365 534 337 470 336 390 c 257
 307 431 l 257
 307 498 346 573 450 573 c 256
 592 573 629 461 629 214 c 256
 629 -25 604 -342 296 -342 c 256
 148 -342 22 -290 22 -192 c 256
  PathStart: -2
EndSplineSet
EndChar

StartChar: tml_RrUu
Encoding: 103 -1 103
GlifName: tml_R_rU_u
Width: 1132
VWidth: 0
GlyphClass: 2
Flags: W
LayerCount: 2
Back
Fore
SplineSet
1102 560 m 257
 1102 518 l 257
 1002 518 l 257
 1002 -13 l 257
 960 -13 l 257
 960 518 l 257
 780 518 l 257
 780 560 l 257
 1102 560 l 257
EndSplineSet
Refer: 102 -1 N 1 0 0 1 0 0 2
EndChar

StartChar: tml_Rra
Encoding: 104 2993 104
GlifName: tml_R_ra
Width: 659
VWidth: 0
GlyphClass: 2
Flags: W
AnchorPoint: "MatraIi.alt1" 533 556 basechar 0
AnchorPoint: "MatraI.alt6" 522 561 basechar 0
AnchorPoint: "virama" 321 0 basechar 0
LayerCount: 2
Back
Fore
SplineSet
329 426 m 257
 293 390 l 257
 293 493 257 531 185 531 c 256
 115 531 72 483 72 393 c 258
 72 0 l 257
 30 0 l 257
 30 404 l 258
 30 502 86 575 191 574 c 256
 267 573 326 524 329 426 c 257
  PathStart: -2
293 0 m 257
 293 460 l 257
 337 460 l 257
 335 0 l 257
 293 0 l 257
363 -137 m 258
 165 -138 l 258
 83 -138 77 -197 76 -236 c 257
 34 -236 l 257
 35 -129 94 -96 160 -96 c 258
 357 -96 l 258
 555 -96 587 23 587 234 c 256
 587 446 564 534 450 534 c 256
 365 534 337 470 336 390 c 257
 311 431 l 257
 311 498 354 573 453 573 c 256
 595 573 629 461 629 234 c 256
 629 2 590 -136 363 -137 c 258
  PathStart: -2
EndSplineSet
EndChar

StartChar: tml_Rupee
Encoding: 105 3065 105
GlifName: tml_R_upee
Width: 872
VWidth: 0
GlyphClass: 2
Flags: W
LayerCount: 2
Back
Fore
SplineSet
300 1 m 257
 300 560 l 257
 727 560 l 257
 727 518 l 257
 591 518 l 257
 591 1 l 257
 549 1 l 257
 549 518 l 257
 343 518 l 257
 343 1 l 257
 300 1 l 257
78 320 m 256
 78 13 214 -225 460 -225 c 256
 667 -225 780 -67 780 118 c 256
 780 206 761 316 679 316 c 256
 636 316 591 278 591 179 c 257
 550 200 l 257
 554 248 579 358 679 358 c 256
 788 358 822 242 822 118 c 256
 822 -104 683 -267 460 -267 c 256
 204 -267 36 -36 36 320 c 256
 36 703 232 954 483 954 c 256
 673 954 788 862 788 734 c 256
 788 654 737 601 661 601 c 256
 586 601 533 658 533 729 c 256
 533 808 587 863 659 863 c 256
 720 863 774 792 774 727 c 257
 746 727 l 257
 747 787 714 821 659 821 c 256
 612 821 575 785 575 729 c 256
 575 681 613 643 661 643 c 256
 714 643 747 681 746 727 c 256
 744 811 734 814 712 837 c 256
 680 870 605 914 483 912 c 256
 227 907 78 640 78 320 c 256
  PathStart: -2
EndSplineSet
EndChar

StartChar: tml_SI
Encoding: 106 -1 106
GlifName: tml_S_I_
Width: 1134
VWidth: 0
Flags: W
LayerCount: 2
Back
Fore
SplineSet
181 -20 m 256
 88 -20 40 86 40 237 c 256
 40 434 125 571 269 571 c 256
 383 571 473 516 473 321 c 258
 473 0 l 257
 430 0 l 257
 430 321 l 258
 430 474 369 531 271 531 c 256
 152 531 81 407 81 238 c 256
 81 151 99 22 183 22 c 256
 241 22 274 84 274 172 c 256
 274 265 237 314 184 314 c 256
 118 314 81 236 88 148 c 257
 54 168 l 257
 55 290 117 354 187 354 c 256
 254 354 314 291 314 171 c 256
 314 59 262 -20 181 -20 c 256
790 -23 m 256
 675 -23 664 74 664 150 c 258
 664 375 l 258
 664 435 663 532 575 532 c 256
 468 532 473 396 473 330 c 257
 430 338 l 257
 430 431 446 574 573 574 c 256
 677 574 706 496 706 382 c 258
 706 141 l 258
 706 86 714 19 790 19 c 256
 881 19 895 160 895 255 c 256
 895 446 839 523 808 559 c 257
 843 584 l 257
 894 525 937 411 937 255 c 256
 937 151 921 -23 790 -23 c 256
849 541 m 257
 790 504 701 535 701 624 c 256
 701 696 768 758 873 758 c 256
 1006 758 1091 666 1092 497 c 258
 1094 1 l 257
 1052 1 l 257
 1051 501 l 258
 1051 642 979 716 873 716 c 256
 808 716 743 683 743 624 c 256
 743 564 797 554 828 573 c 257
 849 541 l 257
EndSplineSet
EndChar

StartChar: tml_SIi
Encoding: 107 -1 107
GlifName: tml_S_I_i
Width: 1103
VWidth: 0
Flags: W
LayerCount: 2
Back
Fore
SplineSet
181 -20 m 256
 88 -20 40 86 40 237 c 256
 40 434 125 571 269 571 c 256
 383 571 473 516 473 321 c 258
 473 0 l 257
 430 0 l 257
 430 321 l 258
 430 474 369 531 271 531 c 256
 152 531 81 407 81 238 c 256
 81 151 99 22 183 22 c 256
 241 22 274 84 274 172 c 256
 274 265 237 314 184 314 c 256
 118 314 81 236 88 148 c 257
 54 168 l 257
 55 290 117 354 187 354 c 256
 254 354 314 291 314 171 c 256
 314 59 262 -20 181 -20 c 256
790 -23 m 256
 675 -23 664 74 664 150 c 258
 664 375 l 258
 664 435 663 532 575 532 c 256
 468 532 473 396 473 330 c 257
 430 338 l 257
 430 431 446 574 573 574 c 256
 677 574 706 496 706 382 c 258
 706 141 l 258
 706 86 714 19 790 19 c 256
 881 19 895 160 895 255 c 256
 895 446 839 523 808 559 c 257
 843 584 l 257
 894 525 937 411 937 255 c 256
 937 151 921 -23 790 -23 c 256
683 682 m 256
 683 829 801 903 922 902 c 256
 1034 901 1063 813 1063 738 c 256
 1063 629 1000 590 946 590 c 256
 878 590 822 639 822 738 c 256
 822 847 886 883 920 893 c 257
 941 863 l 257
 886 863 864 794 864 738 c 256
 864 666 901 632 946 632 c 256
 991 632 1021 678 1021 738 c 256
 1021 806 994 863 941 863 c 256
 792 863 725 785 725 679 c 256
 725 572 806 552 843 584 c 257
 839 537 l 257
 809 520 683 520 683 682 c 256
  PathStart: -2
EndSplineSet
EndChar

StartChar: tml_SU
Encoding: 108 -1 108
GlifName: tml_S_U_
Width: 1308
VWidth: 0
GlyphClass: 2
Flags: W
LayerCount: 2
Back
Fore
SplineSet
181 -20 m 256
 88 -20 40 86 40 237 c 256
 40 434 125 571 269 571 c 256
 383 571 473 516 473 321 c 258
 473 0 l 257
 430 0 l 257
 430 321 l 258
 430 474 369 531 271 531 c 256
 152 531 81 407 81 238 c 256
 81 151 99 22 183 22 c 256
 241 22 274 84 274 172 c 256
 274 265 237 314 184 314 c 256
 118 314 81 236 88 148 c 257
 54 168 l 257
 55 290 117 354 187 354 c 256
 254 354 314 291 314 171 c 256
 314 59 262 -20 181 -20 c 256
790 -23 m 256
 675 -23 664 74 664 150 c 258
 664 375 l 258
 664 435 663 532 575 532 c 256
 468 532 473 396 473 330 c 257
 430 338 l 257
 430 431 446 574 573 574 c 256
 677 574 706 496 706 382 c 258
 706 141 l 258
 706 86 714 19 790 19 c 256
 881 19 895 160 895 255 c 256
 895 444 826 508 818 518 c 257
 849 547 l 257
 900 488 937 401 937 255 c 256
 937 151 921 -23 790 -23 c 256
  PathStart: -2
1131 211 m 256
 1047 211 993 282 993 373 c 256
 993 500 1059 547 1115 547 c 257
 1127 518 l 257
 1067 518 1035 456 1035 378 c 256
 1035 302 1074 253 1127 253 c 256
 1192 253 1226 312 1226 385 c 256
 1226 458 1200 518 1125 518 c 258
 818 518 l 257
 818 560 l 257
 1107 560 l 258
 1198 560 1268 515 1268 385 c 256
 1268 272 1210 211 1131 211 c 256
EndSplineSet
EndChar

StartChar: tml_SUu
Encoding: 109 -1 109
GlifName: tml_S_U_u
Width: 1491
VWidth: 0
GlyphClass: 2
Flags: W
LayerCount: 2
Back
Fore
SplineSet
181 -20 m 256
 88 -20 40 86 40 237 c 256
 40 434 125 571 269 571 c 256
 383 571 473 516 473 321 c 258
 473 0 l 257
 430 0 l 257
 430 321 l 258
 430 474 369 531 271 531 c 256
 152 531 81 407 81 238 c 256
 81 151 99 22 183 22 c 256
 241 22 274 84 274 172 c 256
 274 265 237 314 184 314 c 256
 118 314 81 236 88 148 c 257
 54 168 l 257
 55 290 117 354 187 354 c 256
 254 354 314 291 314 171 c 256
 314 59 262 -20 181 -20 c 256
  PathStart: -2
790 -23 m 256
 675 -23 664 74 664 150 c 258
 664 375 l 258
 664 435 663 532 575 532 c 256
 468 532 473 396 473 330 c 257
 430 338 l 257
 430 431 446 574 573 574 c 256
 677 574 706 496 706 382 c 258
 706 141 l 258
 706 86 714 19 790 19 c 256
 881 19 895 160 895 255 c 256
 895 444 826 508 818 518 c 257
 849 547 l 257
 900 488 937 401 937 255 c 256
 937 151 921 -23 790 -23 c 256
  PathStart: -2
1392 196 m 257
 1353 212 l 257
 1363 227 1409 297 1409 404 c 256
 1409 519 1347 603 1228 603 c 256
 1111 603 1032 519 1032 397 c 256
 1032 310 1082 260 1138 260 c 256
 1194 260 1227 307 1227 385 c 256
 1227 490 1141 518 1059 518 c 258
 818 518 l 257
 818 560 l 257
 1064 560 l 258
 1072 560 1081 560 1089 559 c 256
 1193 553 1270 502 1270 375 c 256
 1270 276 1217 218 1135 218 c 256
 1046 218 990 293 990 397 c 256
 990 538 1085 645 1228 645 c 256
 1386 645 1451 523 1451 414 c 256
 1451 276 1392 196 1392 196 c 257
EndSplineSet
EndChar

StartChar: tml_Sa
Encoding: 110 3000 110
GlifName: tml_S_a
Width: 960
VWidth: 0
GlyphClass: 2
Flags: W
AnchorPoint: "virama" 440 0 basechar 0
LayerCount: 2
Back
Fore
SplineSet
171 -20 m 256
 78 -20 30 86 30 237 c 256
 30 434 115 571 259 571 c 256
 373 571 463 516 463 321 c 258
 463 0 l 257
 420 0 l 257
 420 321 l 258
 420 474 359 531 261 531 c 256
 142 531 71 407 71 238 c 256
 71 151 89 22 173 22 c 256
 231 22 264 84 264 172 c 256
 264 265 227 314 174 314 c 256
 108 314 71 236 78 148 c 257
 44 168 l 257
 45 290 107 354 177 354 c 256
 244 354 304 291 304 171 c 256
 304 59 252 -20 171 -20 c 256
  PathStart: -2
780 -23 m 256
 665 -23 654 74 654 150 c 258
 654 375 l 258
 654 435 653 532 565 532 c 256
 458 532 463 396 463 330 c 257
 420 338 l 257
 420 431 436 574 563 574 c 256
 667 574 696 496 696 382 c 258
 696 141 l 258
 696 86 704 19 780 19 c 256
 871 19 885 160 885 255 c 256
 885 444 804 539 796 549 c 257
 833 571 l 257
 884 512 927 401 927 255 c 256
 927 151 911 -23 780 -23 c 256
  PathStart: -2
EndSplineSet
EndChar

StartChar: tml_Seven
Encoding: 111 3053 111
GlifName: tml_S_even
Width: 499
VWidth: 0
GlyphClass: 2
Flags: W
LayerCount: 2
Back
Fore
SplineSet
171 -24 m 256
 78 -24 30 82 30 233 c 256
 30 430 111 560 255 560 c 258
 469 560 l 257
 469 0 l 257
 427 0 l 257
 427 520 l 257
 257 520 l 258
 138 520 71 403 71 234 c 256
 71 147 89 18 173 18 c 256
 231 18 264 80 264 168 c 256
 264 261 227 310 174 310 c 256
 108 310 71 232 78 144 c 257
 44 164 l 257
 45 286 107 350 177 350 c 256
 244 350 304 287 304 167 c 256
 304 55 252 -24 171 -24 c 256
EndSplineSet
EndChar

StartChar: tml_Sha
Encoding: 112 2998 112
GlifName: tml_S_ha
Width: 747
VWidth: 0
GlyphClass: 2
Flags: W
AnchorPoint: "MatraUu" 546 560 basechar 0
AnchorPoint: "virama" 380 0 basechar 0
AnchorPoint: "MatraIi.alt3" 629 543 basechar 0
AnchorPoint: "MatraI.alt1" 546 560 basechar 0
AnchorPoint: "MatraU" 546 560 basechar 0
LayerCount: 2
Back
Fore
SplineSet
30 560 m 257
 72 560 l 257
 72 157 l 258
 72 76 98 25 173 25 c 256
 244 25 275 76 275 157 c 258
 275 560 l 257
 317 560 l 257
 317 157 l 258
 317 44 265 -17 173 -17 c 256
 78 -17 30 45 30 157 c 258
 30 560 l 257
275 518 m 257
 275 560 l 257
 532 560 l 257
 541 518 l 257
 275 518 l 257
435 143 m 258
 435 545 l 257
 477 545 l 257
 477 143 l 258
 477 55 505 27 558 27 c 256
 626 27 684 108 684 284 c 256
 684 480 638 519 536 518 c 257
 527 560 l 257
 649 560 727 521 726 284 c 256
 725 96 664 -15 558 -15 c 256
 487 -15 435 15 435 143 c 258
  PathStart: -2
EndSplineSet
EndChar

StartChar: tml_Shree
Encoding: 113 -1 113
GlifName: tml_S_hree
Width: 1369
VWidth: 0
GlyphClass: 2
Flags: W
LayerCount: 2
Back
Fore
SplineSet
638 578 m 256
 721 578 780 529 780 402 c 257
 748 391 l 257
 748 484 722 536 643 536 c 256
 589 536 545 508 545 416 c 258
 545 1 l 257
 503 1 l 257
 503 423 l 258
 503 515 549 578 638 578 c 256
  PathStart: -2
748 1 m 257
 748 504 l 257
 761 561 l 257
 1166 561 l 257
 1166 519 l 257
 1056 519 l 257
 1056 1 l 257
 1014 1 l 257
 1014 519 l 257
 790 519 l 257
 790 1 l 257
 748 1 l 257
245 1 m 257
 245 560 l 257
 287 560 l 257
 287 43 l 257
 545 43 l 257
 545 1 l 257
 245 1 l 257
684 -265 m 256
 248 -264 40 -40 40 244 c 256
 40 418 107 532 136 570 c 257
 176 551 l 257
 135 504 82 379 82 244 c 256
 82 10 255 -224 684 -223 c 256
 1002 -222 1250 -81 1250 119 c 256
 1250 264 1187 299 1136 299 c 256
 1079 299 1056 243 1056 204 c 257
 1032 222 l 257
 1032 293 1081 339 1138 339 c 256
 1239 339 1292 247 1292 119 c 256
 1292 -107 1044 -266 684 -265 c 256
1075 526 m 257
 1045 526 966 554 966 695 c 256
 966 832 1067 903 1188 902 c 256
 1300 901 1329 813 1329 738 c 256
 1329 629 1266 590 1212 590 c 256
 1144 590 1088 639 1088 738 c 256
 1088 847 1152 883 1186 893 c 257
 1207 863 l 257
 1152 863 1130 794 1130 738 c 256
 1130 666 1167 632 1212 632 c 256
 1257 632 1287 678 1287 738 c 256
 1287 806 1260 863 1207 863 c 256
 1058 863 1008 778 1008 692 c 256
 1008 590 1060 561 1085 561 c 257
 1075 526 l 257
EndSplineSet
EndChar

StartChar: tml_Six
Encoding: 114 3052 114
GlifName: tml_S_ix
Width: 600
VWidth: 0
GlyphClass: 2
Flags: W
LayerCount: 2
Back
Fore
SplineSet
213 1 m 256
 104 1 33 68 30 175 c 256
 27 272 86 341 183 341 c 258
 434 341 l 258
 507 341 554 285 554 239 c 257
 518 213 l 257
 518 229 512 299 424 299 c 258
 201 299 l 258
 114 299 72 248 72 177 c 256
 72 96 128 43 209 43 c 256
 282 43 347 86 347 207 c 258
 347 289 l 257
 347 320 l 257
 347 518 l 257
 191 518 l 257
 191 309 l 257
 149 309 l 257
 149 560 l 257
 512 560 l 257
 512 518 l 257
 389 518 l 257
 389 207 l 258
 389 104 348 1 213 1 c 256
518 0 m 257
 518 213 l 258
 518 265 561 341 670 341 c 258
 827 341 l 257
 827 299 l 257
 747 299 l 257
 747 0 l 257
 705 0 l 257
 705 299 l 257
 605 299 560 278 560 188 c 258
 560 0 l 257
 518 0 l 257
EndSplineSet
EndChar

StartChar: tml_SsU
Encoding: 115 -1 115
GlifName: tml_S_sU_
Width: 1338
VWidth: 0
GlyphClass: 2
Flags: W
LayerCount: 2
Back
Fore
SplineSet
1121 211 m 256
 1037 211 983 282 983 373 c 256
 983 500 1049 547 1105 547 c 257
 1117 518 l 257
 1057 518 1025 456 1025 378 c 256
 1025 302 1064 253 1117 253 c 256
 1182 253 1216 312 1216 385 c 256
 1216 458 1190 518 1115 518 c 258
 912 518 l 257
 912 468 l 257
 870 468 l 257
 870 560 l 257
 1097 560 l 258
 1188 560 1258 515 1258 385 c 256
 1258 272 1200 211 1121 211 c 256
EndSplineSet
Refer: 117 2999 N 1 0 0 1 10 0 2
EndChar

StartChar: tml_SsUu
Encoding: 116 -1 116
GlifName: tml_S_sU_u
Width: 1524
VWidth: 0
GlyphClass: 2
Flags: W
LayerCount: 2
Back
Fore
SplineSet
1375 196 m 257
 1336 212 l 257
 1346 227 1392 297 1392 404 c 256
 1392 519 1330 603 1211 603 c 256
 1094 603 1015 519 1015 397 c 256
 1015 310 1065 260 1121 260 c 256
 1177 260 1210 307 1210 385 c 256
 1210 490 1124 518 1042 518 c 258
 912 518 l 257
 912 468 l 257
 870 468 l 257
 870 560 l 257
 1047 560 l 258
 1055 560 1064 560 1072 559 c 256
 1176 553 1253 502 1253 375 c 256
 1253 276 1200 218 1118 218 c 256
 1029 218 973 293 973 397 c 256
 973 538 1068 645 1211 645 c 256
 1369 645 1434 523 1434 414 c 256
 1434 276 1375 196 1375 196 c 257
EndSplineSet
Refer: 117 2999 N 1 0 0 1 10 0 2
EndChar

StartChar: tml_Ssa
Encoding: 117 2999 117
GlifName: tml_S_sa
Width: 932
VWidth: 0
GlyphClass: 2
Flags: W
AnchorPoint: "MatraIi.alt1" 706 556 basechar 0
AnchorPoint: "MatraI.alt8" 698 561 basechar 0
AnchorPoint: "virama" 515 0 basechar 0
LayerCount: 2
Back
Fore
SplineSet
30 237 m 256
 30 434 111 571 255 571 c 256
 369 571 463 475 463 280 c 256
 463 174 433 84 401 1 c 257
 367 34 l 257
 381 63 420 169 420 281 c 256
 420 428 359 531 257 531 c 256
 138 531 71 407 71 238 c 256
 71 151 89 22 173 22 c 256
 231 22 264 84 264 172 c 256
 264 265 227 314 174 314 c 256
 108 314 71 236 78 148 c 257
 44 168 l 257
 45 290 107 354 177 354 c 256
 244 354 304 291 304 171 c 256
 304 59 252 -20 171 -20 c 256
 78 -20 30 86 30 237 c 256
  PathStart: -2
757 -146 m 257
 715 -146 l 257
 715 438 l 258
 715 491 692 531 647 531 c 256
 564 531 541 456 541 400 c 256
 541 299 610 197 728 197 c 256
 834 197 859 298 860 379 c 257
 897 376 l 257
 897 271 868 155 728 155 c 256
 610 155 501 240 499 410 c 256
 498 507 565 573 640 573 c 256
 757 573 757 463 757 438 c 258
 757 -146 l 257
367 1 m 257
 367 34 l 257
 416 43 l 257
 860 43 l 257
 860 472 l 257
 902 472 l 257
 902 1 l 257
 367 1 l 257
EndSplineSet
EndChar

StartChar: tml_TU
Encoding: 118 -1 118
GlifName: tml_T_U_
Width: 734
VWidth: 0
GlyphClass: 2
Flags: W
LayerCount: 2
Back
Fore
SplineSet
289 -342 m 256
 141 -342 22 -290 22 -192 c 256
 22 -128 75 -106 135 -106 c 258
 662 -106 l 257
 662 564 l 257
 704 564 l 257
 704 -148 l 257
 132 -148 l 258
 93 -148 64 -159 64 -192 c 256
 64 -253 146 -300 290 -300 c 256
 474 -300 552 -129 552 43 c 256
 552 193 493 299 374 299 c 258
 201 299 l 258
 114 299 72 248 72 177 c 256
 72 96 128 43 209 43 c 256
 282 43 347 86 347 207 c 258
 347 289 l 257
 347 324 l 257
 347 518 l 257
 191 518 l 257
 191 309 l 257
 149 309 l 257
 149 560 l 257
 512 560 l 257
 512 518 l 257
 389 518 l 257
 389 207 l 258
 389 104 348 1 213 1 c 256
 104 1 33 68 30 175 c 256
 27 272 86 341 183 341 c 258
 384 341 l 258
 512 341 594 236 594 43 c 256
 594 -181 491 -342 289 -342 c 256
EndSplineSet
EndChar

StartChar: tml_TUu
Encoding: 119 -1 119
GlifName: tml_T_U_u
Width: 1056
VWidth: 0
GlyphClass: 2
Flags: W
LayerCount: 2
Back
Fore
SplineSet
884 -22 m 257
 884 522 l 257
 704 522 l 257
 704 564 l 257
 1026 564 l 257
 1026 522 l 257
 926 522 l 257
 926 -22 l 257
 884 -22 l 257
EndSplineSet
Refer: 118 -1 N 1 0 0 1 0 0 2
EndChar

StartChar: tml_Ta
Encoding: 120 2980 120
GlifName: tml_T_a
Width: 621
VWidth: 0
GlyphClass: 2
Flags: W
AnchorPoint: "MatraIi" 452 560 basechar 0
AnchorPoint: "MatraI.stylalt1" 109 304 basechar 0
AnchorPoint: "virama" 367 0 basechar 0
AnchorPoint: "MatraI.alt2" 462 560 basechar 0
AnchorPoint: "MatraIi.stylalt1" 109 304 basechar 0
AnchorPoint: "MatraI.alt1" 452 560 basechar 0
LayerCount: 2
Back
Fore
SplineSet
220 -138 m 258
 138 -139 132 -197 131 -236 c 257
 89 -236 l 257
 90 -129 149 -95 215 -95 c 258
 322 -95 l 258
 406 -95 545 -43 545 116 c 256
 545 243 506 299 372 299 c 258
 201 299 l 258
 114 299 72 248 72 177 c 256
 72 96 128 43 209 43 c 256
 282 43 347 86 347 207 c 258
 347 289 l 257
 347 321 l 257
 347 518 l 257
 191 518 l 257
 191 309 l 257
 149 309 l 257
 149 560 l 257
 512 560 l 257
 512 518 l 257
 389 518 l 257
 389 207 l 258
 389 104 348 1 213 1 c 256
 104 1 33 68 30 175 c 256
 27 272 86 341 183 341 c 258
 375 341 l 258
 520 341 591 271 591 117 c 256
 591 -47 467 -136 331 -137 c 258
 220 -138 l 258
EndSplineSet
EndChar

StartChar: tml_Ten
Encoding: 121 3056 121
GlifName: tml_T_en
Width: 600
VWidth: 0
GlyphClass: 2
Flags: W
LayerCount: 2
Back
Fore
SplineSet
336 292 m 257
 378 292 l 257
 382 148 389 31 501 32 c 256
 601 33 650 128 650 285 c 256
 650 426 576 538 486 538 c 256
 424 538 381 504 347 470 c 257
 321 499 l 257
 348 527 394 575 479 575 c 256
 630 575 692 429 692 261 c 256
 692 94 620 -10 501 -10 c 256
 369 -10 341 95 336 292 c 257
  PathStart: -2
26 234 m 256
 26 364 79 470 119 550 c 257
 158 527 l 257
 135 483 68 373 68 239 c 256
 68 112 119 25 207 25 c 256
 318 25 340 101 336 292 c 257
 378 292 l 257
 385 88 360 -17 207 -17 c 256
 102 -17 26 67 26 234 c 256
  PathStart: -2
EndSplineSet
EndChar

StartChar: tml_Thousand
Encoding: 122 3058 122
GlifName: tml_T_housand
Width: 552
VWidth: 0
GlyphClass: 2
Flags: W
LayerCount: 2
Back
Fore
SplineSet
608 -105 m 258
 667 -105 l 258
 759 -104 803 -36 803 26 c 256
 803 108 774 173 660 173 c 258
 549 173 l 258
 490 173 455 136 455 81 c 256
 455 30 497 -9 555 -9 c 256
 618 -9 642 26 642 102 c 258
 642 306 l 257
 684 306 l 257
 684 96 l 258
 684 25 664 -52 555 -51 c 256
 448 -51 413 31 413 81 c 256
 413 134 450 215 548 215 c 258
 671 215 l 258
 750 215 845 182 845 24 c 256
 845 -72 775 -147 671 -147 c 258
 599 -147 l 258
 527 -147 536 -221 536 -237 c 257
 492 -237 l 257
 492 -191 491 -107 608 -105 c 258
  PathStart: -2
486 341 m 257
 791 341 l 257
 791 299 l 257
 486 299 l 257
 486 341 l 257
EndSplineSet
Refer: 12 2970 N 1 0 0 1 0 0 2
EndChar

StartChar: tml_Three
Encoding: 123 3049 123
GlifName: tml_T_hree
Width: 600
VWidth: 0
GlyphClass: 2
Flags: W
LayerCount: 2
Back
Fore
SplineSet
30 0 m 257
 30 560 l 257
 386 560 l 257
 386 518 l 257
 274 518 l 257
 274 164 l 257
 232 164 l 257
 232 518 l 257
 72 518 l 257
 72 0 l 257
 30 0 l 257
232 42 m 257
 638 42 l 257
 638 0 l 257
 232 0 l 257
 232 42 l 257
243 42 m 257
 400 42 461 144 461 247 c 256
 461 318 432 369 365 369 c 256
 306 369 274 322 274 274 c 257
 251 279 l 257
 251 352 294 408 372 408 c 256
 449 408 503 349 503 249 c 256
 503 118 438 13 253 13 c 257
 243 42 l 257
EndSplineSet
EndChar

StartChar: tml_TtI
Encoding: 124 -1 124
GlifName: tml_T_tI_
Width: 569
VWidth: 0
GlyphClass: 2
Flags: W
LayerCount: 2
Back
Fore
SplineSet
416 7 m 257
 313 29 249 170 249 319 c 256
 249 471 302 573 400 573 c 256
 486 573 541 525 542 374 c 258
 544 -146 l 257
 502 -146 l 257
 500 393 l 258
 500 444 486 531 400 531 c 256
 321 531 291 417 291 319 c 256
 291 179 368 43 436 43 c 257
 416 7 l 257
EndSplineSet
Refer: 128 2975 N 1 0 0 1 0 0 2
EndChar

StartChar: tml_TtIi
Encoding: 125 -1 125
GlifName: tml_T_tI_i
Width: 630
VWidth: 0
GlyphClass: 2
Flags: W
LayerCount: 2
Back
Fore
SplineSet
223 208 m 256
 223 368 343 442 452 441 c 256
 543 440 600 388 600 283 c 256
 600 189 550 129 478 129 c 256
 401 129 356 204 356 278 c 256
 356 367 395 414 458 430 c 257
 474 401 l 257
 427 401 398 350 398 278 c 256
 398 221 429 171 478 171 c 256
 522 171 560 211 560 283 c 256
 560 356 521 401 474 401 c 256
 378 401 265 352 265 208 c 256
 265 99 337 42 398 42 c 257
 398 6 l 257
 300 6 223 85 223 208 c 256
EndSplineSet
Refer: 128 2975 N 1 0 0 1 0 0 2
EndChar

StartChar: tml_TtU
Encoding: 126 -1 126
GlifName: tml_T_tU_
Width: 786
VWidth: 0
GlyphClass: 2
Flags: W
LayerCount: 2
Back
Fore
SplineSet
382 560 m 257
 382 0 l 257
 340 0 l 257
 340 560 l 257
 382 560 l 257
350 -225 m 256
 495 -224 561 -103 561 101 c 256
 561 220 529 305 455 305 c 256
 393 305 382 249 382 204 c 257
 349 215 l 257
 349 288 391 347 455 347 c 256
 549 347 603 250 603 101 c 256
 603 -76 553 -268 350 -267 c 256
 185 -266 40 -148 40 254 c 256
 40 505 146 799 412 800 c 256
 663 801 776 629 776 394 c 258
 776 -13 l 257
 732 -13 l 257
 732 400 l 258
 732 646 588 757 412 757 c 256
 181 757 82 489 82 254 c 256
 82 -106 201 -226 350 -225 c 256
  PathStart: -2
EndSplineSet
EndChar

StartChar: tml_TtUu
Encoding: 127 -1 127
GlifName: tml_T_tU_u
Width: 600
VWidth: 0
GlyphClass: 2
Flags: W
LayerCount: 2
Back
Fore
SplineSet
382 560 m 257
 382 0 l 257
 340 0 l 257
 340 560 l 257
 382 560 l 257
350 -267 m 256
 185 -266 40 -148 40 254 c 256
 40 505 156 800 432 800 c 256
 627 800 731 680 731 558 c 256
 731 459 678 404 618 404 c 256
 527 404 490 485 490 549 c 256
 490 615 529 690 612 690 c 256
 691 690 731 615 731 558 c 256
 731 505 695 434 625 432 c 257
 616 446 l 257
 673 446 689 512 689 552 c 256
 689 605 661 648 612 648 c 256
 564 648 532 604 532 549 c 256
 532 482 567 446 616 446 c 256
 670 446 689 498 689 552 c 256
 689 663 606 758 432 758 c 256
 189 758 82 489 82 254 c 256
 82 -106 201 -226 350 -225 c 256
 495 -224 561 -103 561 101 c 256
 561 220 529 305 455 305 c 256
 393 305 382 249 382 204 c 257
 349 215 l 257
 349 288 391 347 455 347 c 256
 549 347 603 250 603 101 c 256
 603 -76 553 -268 350 -267 c 256
EndSplineSet
EndChar

StartChar: tml_Tta
Encoding: 128 2975 128
GlifName: tml_T_ta
Width: 569
VWidth: 0
GlyphClass: 2
Flags: W
AnchorPoint: "virama" 304 0 basechar 0
LayerCount: 2
Back
Fore
SplineSet
30 1 m 257
 30 560 l 257
 72 560 l 257
 72 43 l 257
 539 43 l 257
 539 1 l 257
 30 1 l 257
EndSplineSet
EndChar

StartChar: tml_Two
Encoding: 129 3048 129
GlifName: tml_T_wo
Width: 544
VWidth: 0
GlyphClass: 2
Flags: W
LayerCount: 2
Back
Fore
SplineSet
157 0 m 257
 67 0 36 43 36 92 c 256
 36 156 89 186 144 186 c 258
 217 186 l 258
 344 186 420 233 420 360 c 256
 420 501 315 546 232 546 c 256
 115 546 72 455 72 375 c 256
 72 328 109 280 170 280 c 256
 232 280 262 330 262 384 c 256
 262 452 213 480 165 480 c 256
 107 480 72 440 72 375 c 257
 45 390 l 257
 45 450 79 519 167 519 c 256
 234 519 304 478 304 383 c 256
 304 297 246 238 169 238 c 256
 88 238 30 304 30 396 c 256
 30 504 110 587 235 588 c 256
 371 589 464 496 464 362 c 256
 464 243 400 146 236 144 c 258
 146 143 l 258
 103 143 82 120 82 91 c 256
 82 64 99 42 155 42 c 257
 157 0 l 257
153 0 m 257
 151 42 l 257
 514 42 l 257
 514 0 l 257
 153 0 l 257
EndSplineSet
EndChar

StartChar: tml_U
Encoding: 130 2953 130
GlifName: tml_U_
Width: 798
VWidth: 0
GlyphClass: 2
Flags: W
LayerCount: 2
Back
Fore
SplineSet
768 42 m 257
 768 0 l 257
 154 0 l 258
 64 0 30 43 30 93 c 256
 30 160 78 194 144 194 c 258
 193 194 l 258
 317 194 399 242 399 376 c 256
 399 503 309 556 229 555 c 256
 106 554 66 464 66 384 c 256
 66 337 103 289 163 289 c 256
 226 289 256 340 256 390 c 256
 256 462 207 489 160 489 c 256
 100 489 66 449 66 384 c 257
 39 399 l 257
 39 458 74 528 158 528 c 256
 230 528 298 487 298 390 c 256
 298 306 238 247 166 247 c 256
 82 247 24 313 24 402 c 256
 24 516 106 596 229 597 c 256
 362 598 441 506 441 376 c 256
 441 250 374 155 217 153 c 258
 137 152 l 258
 94 151 72 127 72 94 c 256
 72 62 94 42 149 42 c 258
 768 42 l 257
EndSplineSet
EndChar

StartChar: tml_Uu
Encoding: 131 2954 131
GlifName: tml_U_u
Width: 1164
VWidth: 0
GlyphClass: 2
Flags: W
LayerCount: 2
Back
Fore
SplineSet
147 0 m 258
 67 0 36 43 36 92 c 256
 36 156 89 186 144 186 c 258
 217 186 l 258
 344 186 420 233 420 360 c 256
 420 501 315 546 232 546 c 256
 115 546 72 455 72 375 c 256
 72 328 109 280 170 280 c 256
 232 280 262 330 262 384 c 256
 262 452 213 480 165 480 c 256
 107 480 72 440 72 375 c 257
 45 390 l 257
 45 450 79 519 167 519 c 256
 234 519 304 478 304 383 c 256
 304 297 246 238 169 238 c 256
 88 238 30 304 30 396 c 256
 30 504 110 587 235 588 c 256
 371 589 464 496 464 362 c 256
 464 243 400 146 236 144 c 258
 146 143 l 258
 103 143 82 120 82 91 c 256
 82 64 99 42 155 42 c 258
 1144 42 l 257
 1144 0 l 257
 147 0 l 258
631 96 m 256
 553 96 514 184 514 299 c 256
 514 449 585 555 694 555 c 256
 781 555 854 487 854 331 c 257
 817 332 l 257
 817 450 774 513 696 513 c 256
 606 513 554 428 554 300 c 256
 554 234 568 136 633 136 c 256
 677 136 702 182 702 249 c 256
 702 319 673 358 633 358 c 256
 583 358 553 299 559 232 c 257
 535 247 l 257
 535 339 572 398 635 398 c 256
 696 398 742 350 742 248 c 256
 742 163 702 96 631 96 c 256
817 545 m 257
 1142 545 l 257
 1142 503 l 257
 1047 503 l 257
 1047 120 l 257
 1007 120 l 257
 1007 503 l 257
 859 503 l 257
 859 120 l 257
 817 120 l 257
 817 416 l 257
 817 444 l 257
 817 545 l 257
EndSplineSet
EndChar

StartChar: tml_VUu
Encoding: 132 -1 132
GlifName: tml_V_U_u
Width: 687
VWidth: 0
GlyphClass: 2
Flags: W
LayerCount: 2
Back
Fore
SplineSet
615 -136 m 257
 615 32 l 257
 657 33 l 257
 657 -136 l 257
 615 -136 l 257
195 -178 m 256
 195 -246 319 -300 473 -300 c 256
 637 -300 777 -209 777 -93 c 256
 777 -22 740 13 698 13 c 256
 659 13 657 -30 657 -47 c 257
 618 -34 l 257
 618 7 645 54 702 54 c 256
 768 54 819 -4 819 -93 c 256
 819 -228 658 -342 473 -342 c 256
 315 -342 153 -280 153 -178 c 256
 153 -110 207 -89 260 -89 c 257
 425 -89 l 257
 425 -131 l 257
 260 -131 l 257
 214 -131 195 -146 195 -178 c 256
  PathStart: -2
EndSplineSet
Refer: 133 2997 N 1 0 0 1 0 0 2
EndChar

StartChar: tml_Va
Encoding: 133 2997 133
GlifName: tml_V_a
Width: 687
VWidth: 0
GlyphClass: 2
Flags: W
AnchorPoint: "MatraIi" 635 559 basechar 0
AnchorPoint: "MatraI.alt3" 616 500 basechar 0
AnchorPoint: "virama" 380 0 basechar 0
AnchorPoint: "MatraU.alt1" 615 33 basechar 0
LayerCount: 2
Back
Fore
SplineSet
30 237 m 256
 30 434 111 571 255 571 c 256
 369 571 463 475 463 280 c 256
 463 174 433 84 401 1 c 257
 367 34 l 257
 381 63 420 169 420 281 c 256
 420 428 359 531 257 531 c 256
 138 531 71 407 71 238 c 256
 71 151 89 22 173 22 c 256
 231 22 264 84 264 172 c 256
 264 265 227 314 174 314 c 256
 108 314 71 236 78 148 c 257
 44 168 l 257
 45 290 107 354 177 354 c 256
 244 354 304 291 304 171 c 256
 304 59 252 -20 171 -20 c 256
 78 -20 30 86 30 237 c 256
  PathStart: -2
367 34 m 257
 416 43 l 257
 615 43 l 257
 615 559 l 257
 657 559 l 257
 657 1 l 257
 367 1 l 257
 367 34 l 257
EndSplineSet
PickledDataWithLists: "(dp1
S'com.schriftgestaltung.Glyphs.rightMetricsKey'
p2
S'=tml_Pa'
p3
s."
EndChar

StartChar: tml_Virama
Encoding: 134 3021 134
GlifName: tml_V_irama
Width: 0
VWidth: 0
GlyphClass: 4
Flags: W
AnchorPoint: "virama" 0 0 mark 0
LayerCount: 2
Back
Fore
SplineSet
-38 680 m 256
 -38 701 -21 717 0 717 c 256
 21 717 37 701 37 680 c 256
 37 659 21 642 0 642 c 256
 -21 642 -38 659 -38 680 c 256
EndSplineSet
PickledDataWithLists: "(dp1
S'com.typemytype.robofont.guides'
p2
(lp3
(dp4
S'y'
I680
sS'x'
I0
sS'angle'
p5
I0
sS'isGlobal'
p6
I00
sas."
EndChar

StartChar: tml_Visarga
Encoding: 135 2947 135
GlifName: tml_V_isarga
Width: 782
VWidth: 0
GlyphClass: 2
Flags: W
LayerCount: 2
Back
Fore
SplineSet
523 282 m 256
 523 360 460 423 382 423 c 256
 303 423 240 360 240 282 c 256
 240 204 303 141 382 141 c 256
 460 141 523 204 523 282 c 256
  PathStart: -2
282 284 m 256
 282 339 326 383 382 383 c 256
 436 383 480 339 480 284 c 256
 480 229 436 183 382 183 c 256
 326 183 282 229 282 284 c 256
  PathStart: -2
722 -69 m 256
 722 9 659 72 581 72 c 256
 502 72 439 9 439 -69 c 256
 439 -147 502 -210 581 -210 c 256
 659 -210 722 -147 722 -69 c 256
  PathStart: -2
481 -67 m 256
 481 -12 525 32 581 32 c 256
 635 32 679 -12 679 -67 c 256
 679 -122 635 -168 581 -168 c 256
 525 -168 481 -122 481 -67 c 256
  PathStart: -2
343 -69 m 256
 343 9 280 72 202 72 c 256
 123 72 60 9 60 -69 c 256
 60 -147 123 -210 202 -210 c 256
 280 -210 343 -147 343 -69 c 256
  PathStart: -2
102 -67 m 256
 102 -12 146 32 202 32 c 256
 256 32 300 -12 300 -67 c 256
 300 -122 256 -168 202 -168 c 256
 146 -168 102 -122 102 -67 c 256
  PathStart: -2
EndSplineSet
EndChar

StartChar: tml_YUu
Encoding: 136 -1 136
GlifName: tml_Y_U_u
Width: 648
VWidth: 0
GlyphClass: 2
Flags: W
LayerCount: 2
Back
Fore
SplineSet
575 -136 m 257
 575 32 l 257
 617 33 l 257
 617 -136 l 257
 575 -136 l 257
155 -178 m 256
 155 -246 279 -300 433 -300 c 256
 597 -300 737 -209 737 -93 c 256
 737 -22 700 13 658 13 c 256
 619 13 617 -30 617 -47 c 257
 578 -34 l 257
 578 7 605 54 662 54 c 256
 728 54 779 -4 779 -93 c 256
 779 -228 618 -342 433 -342 c 256
 275 -342 113 -280 113 -178 c 256
 113 -110 167 -89 220 -89 c 257
 385 -89 l 257
 385 -131 l 257
 220 -131 l 257
 174 -131 155 -146 155 -178 c 256
  PathStart: -2
EndSplineSet
Refer: 137 2991 N 1 0 0 1 0 0 2
EndChar

StartChar: tml_Ya
Encoding: 137 2991 137
GlifName: tml_Y_a
Width: 648
VWidth: 0
GlyphClass: 2
Flags: W
AnchorPoint: "MatraIi" 596 560 basechar 0
AnchorPoint: "MatraI.alt3" 577 500 basechar 0
AnchorPoint: "virama" 313 0 basechar 0
AnchorPoint: "MatraU.alt1" 576 33 basechar 0
LayerCount: 2
Back
Fore
SplineSet
180 -17 m 256
 88 -24 30 39 30 141 c 258
 30 560 l 257
 72 560 l 257
 72 179 l 258
 72 141 64 25 172 25 c 256
 244 25 290 76 290 170 c 257
 322 159 l 257
 322 32 251 -12 180 -17 c 256
303 0 m 257
 290 57 l 257
 290 560 l 257
 332 560 l 257
 332 42 l 257
 576 42 l 257
 576 560 l 257
 618 560 l 257
 618 0 l 257
 303 0 l 257
EndSplineSet
EndChar

StartChar: tml_Year
Encoding: 138 3061 138
GlifName: tml_Y_ear
Width: 1730
VWidth: 0
GlyphClass: 2
Flags: W
LayerCount: 2
Back
Fore
SplineSet
250 237 m 256
 250 434 331 571 475 571 c 256
 589 571 683 475 683 280 c 256
 683 174 653 84 621 1 c 257
 587 34 l 257
 601 63 640 169 640 281 c 256
 640 428 579 531 477 531 c 256
 358 531 291 407 291 238 c 256
 291 151 309 22 393 22 c 256
 451 22 484 84 484 172 c 256
 484 265 447 314 394 314 c 256
 328 314 291 236 298 148 c 257
 264 168 l 257
 265 290 327 354 397 354 c 256
 464 354 524 291 524 171 c 256
 524 59 472 -20 391 -20 c 256
 298 -20 250 86 250 237 c 256
  PathStart: -2
587 34 m 257
 636 43 l 257
 835 43 l 257
 835 559 l 257
 877 559 l 257
 877 1 l 257
 587 1 l 257
 587 34 l 257
1083 0 m 257
 1086 518 l 257
 835 518 l 257
 835 560 l 257
 1264 560 l 257
 1264 518 l 257
 1131 518 l 257
 1128 0 l 257
 1083 0 l 257
765 -342 m 256
 369 -342 30 -138 30 247 c 256
 30 630 349 850 789 850 c 256
 1144 850 1504 672 1499 394 c 256
 1498 342 1515 293 1579 293 c 256
 1630 293 1658 332 1658 385 c 258
 1658 560 l 257
 1700 560 l 257
 1700 381 l 258
 1700 306 1659 249 1579 251 c 256
 1492 253 1457 323 1457 394 c 256
 1457 661 1099 808 789 808 c 256
 355 808 72 596 72 247 c 256
 72 -100 375 -300 765 -300 c 256
 1088 -300 1323 -159 1323 107 c 256
 1323 252 1260 299 1209 299 c 256
 1152 299 1129 243 1129 204 c 257
 1105 222 l 257
 1105 293 1154 339 1211 339 c 256
 1312 339 1365 235 1365 107 c 256
 1365 -146 1173 -342 765 -342 c 256
EndSplineSet
EndChar

StartChar: tml_Zero
Encoding: 139 3046 139
GlifName: tml_Z_ero
Width: 600
VWidth: 0
GlyphClass: 2
Flags: W
LayerCount: 2
Back
Fore
SplineSet
264 -5 m 256
 397 -5 474 95 474 203 c 256
 474 314 392 409 267 409 c 256
 152 409 60 328 60 199 c 256
 60 72 148 -5 264 -5 c 256
269 37 m 256
 168 37 102 106 102 199 c 256
 102 281 150 367 270 367 c 256
 368 367 432 284 432 203 c 256
 432 123 364 37 269 37 c 256
EndSplineSet
EndChar
